<?xml version="1.0" encoding="UTF-8"?>
<svg xmlns="http://www.w3.org/2000/svg" viewBox="0 0 870 870" width="870" height="870" font-family="system-ui, -apple-system, sans-serif">
<rect width="870" height="870" fill="#fafafa" rx="8"/>
<text x="435.0" y="22" text-anchor="middle" font-size="14" font-weight="bold" fill="#1a1a2e">Blossom vs Gabow vs Micali-Vazirani: Performance Across Topologies</text>
<line x1="435.0" y1="36" x2="435.0" y2="810" stroke="#e0e0e0" stroke-width="1"/>
<line x1="30" y1="420" x2="840" y2="420" stroke="#e0e0e0" stroke-width="1"/>
<g transform="translate(225, 245)">
<text x="0" y="-190" text-anchor="middle" font-size="12" font-weight="bold" fill="#333">|V| ~ 100</text>
<text x="0" y="-176" text-anchor="middle" font-size="9" font-style="italic" fill="#888">Gabow dominates</text>
<circle cx="0" cy="0" r="31.2" fill="none" stroke="#ddd" stroke-width="0.5"/>
<circle cx="0" cy="0" r="62.5" fill="none" stroke="#ddd" stroke-width="0.5"/>
<circle cx="0" cy="0" r="93.8" fill="none" stroke="#ddd" stroke-width="0.5"/>
<circle cx="0" cy="0" r="125.0" fill="none" stroke="#ddd" stroke-width="0.5"/>
<line x1="0" y1="0" x2="0.0" y2="-125.0" stroke="#ccc" stroke-width="0.4"/>
<text x="0.0" y="-144.0" text-anchor="middle" font-size="9" fill="#555">Star</text>
<line x1="0" y1="0" x2="62.5" y2="-108.3" stroke="#ccc" stroke-width="0.4"/>
<text x="73.5" y="-124.3" text-anchor="start" font-size="9" fill="#555">Path</text>
<line x1="0" y1="0" x2="108.3" y2="-62.5" stroke="#ccc" stroke-width="0.4"/>
<text x="127.3" y="-70.5" text-anchor="start" font-size="9" fill="#555">Cycle</text>
<line x1="0" y1="0" x2="125.0" y2="-0.0" stroke="#ccc" stroke-width="0.4"/>
<text x="147.0" y="3.0" text-anchor="start" font-size="9" fill="#555">Grid</text>
<line x1="0" y1="0" x2="108.3" y2="62.5" stroke="#ccc" stroke-width="0.4"/>
<text x="127.3" y="76.5" text-anchor="start" font-size="9" fill="#555">Torus</text>
<line x1="0" y1="0" x2="62.5" y2="108.3" stroke="#ccc" stroke-width="0.4"/>
<text x="73.5" y="130.3" text-anchor="start" font-size="9" fill="#555">Wheel</text>
<line x1="0" y1="0" x2="0.0" y2="125.0" stroke="#ccc" stroke-width="0.4"/>
<text x="0.0" y="142.0" text-anchor="middle" font-size="9" fill="#555">Hex.</text>
<text x="0.0" y="153.0" text-anchor="middle" font-size="9" fill="#555">Lattice</text>
<line x1="0" y1="0" x2="-62.5" y2="108.3" stroke="#ccc" stroke-width="0.4"/>
<text x="-73.5" y="122.3" text-anchor="end" font-size="9" fill="#555">Tri.</text>
<text x="-73.5" y="133.3" text-anchor="end" font-size="9" fill="#555">Lattice</text>
<line x1="0" y1="0" x2="-108.3" y2="62.5" stroke="#ccc" stroke-width="0.4"/>
<text x="-127.3" y="68.5" text-anchor="end" font-size="9" fill="#555">Windmill</text>
<text x="-127.3" y="79.5" text-anchor="end" font-size="9" fill="#555">K4</text>
<line x1="0" y1="0" x2="-125.0" y2="0.0" stroke="#ccc" stroke-width="0.4"/>
<text x="-147.0" y="-5.0" text-anchor="end" font-size="9" fill="#555">Watts</text>
<text x="-147.0" y="6.0" text-anchor="end" font-size="9" fill="#555">Strogatz</text>
<line x1="0" y1="0" x2="-108.3" y2="-62.5" stroke="#ccc" stroke-width="0.4"/>
<text x="-127.3" y="-78.5" text-anchor="end" font-size="9" fill="#555">Erdős</text>
<text x="-127.3" y="-67.5" text-anchor="end" font-size="9" fill="#555">Rényi</text>
<line x1="0" y1="0" x2="-62.5" y2="-108.3" stroke="#ccc" stroke-width="0.4"/>
<text x="-73.5" y="-132.3" text-anchor="end" font-size="9" fill="#555">Barabási</text>
<text x="-73.5" y="-121.3" text-anchor="end" font-size="9" fill="#555">Albert</text>
<polygon points="0.0,-91.7 41.9,-72.5 72.9,-42.1 81.0,-0.0 69.8,40.3 40.5,70.1 0.0,83.0 -38.7,67.0 -61.6,35.6 -67.7,0.0 -49.2,-28.4 -30.2,-52.4" fill="rgba(32,96,208,0.12)" stroke="#2060D0" stroke-width="1.5"/>
<polygon points="0.0,-111.1 62.5,-108.3 107.3,-61.9 122.8,-0.0 106.3,61.4 61.0,105.7 0.0,125.0 -60.4,104.6 -82.5,47.6 -109.9,0.0 -92.3,-53.3 -44.6,-77.3" fill="rgba(230,159,0,0.12)" stroke="#E69F00" stroke-width="1.5"/>
<polygon points="0.0,-81.5 47.7,-82.7 82.8,-47.8 95.1,-0.0 82.2,47.5 47.4,82.1 0.0,96.8 -47.1,81.6 -68.0,39.2 -88.6,0.0 -75.7,-43.7 -39.3,-68.0" fill="rgba(224,48,48,0.12)" stroke="#E03030" stroke-width="1.5"/>
<circle cx="0.0" cy="-81.5" r="2" fill="#E03030"/>
<circle cx="47.7" cy="-82.7" r="2" fill="#E03030"/>
<circle cx="82.8" cy="-47.8" r="2" fill="#E03030"/>
<circle cx="95.1" cy="-0.0" r="2" fill="#E03030"/>
<circle cx="82.2" cy="47.5" r="2" fill="#E03030"/>
<circle cx="47.4" cy="82.1" r="2" fill="#E03030"/>
<circle cx="0.0" cy="96.8" r="2" fill="#E03030"/>
<circle cx="-47.1" cy="81.6" r="2" fill="#E03030"/>
<circle cx="-68.0" cy="39.2" r="2" fill="#E03030"/>
<circle cx="-88.6" cy="0.0" r="2" fill="#E03030"/>
<circle cx="-75.7" cy="-43.7" r="2" fill="#E03030"/>
<circle cx="-39.3" cy="-68.0" r="2" fill="#E03030"/>
<circle cx="0.0" cy="-111.1" r="2" fill="#E69F00"/>
<circle cx="62.5" cy="-108.3" r="2" fill="#E69F00"/>
<circle cx="107.3" cy="-61.9" r="2" fill="#E69F00"/>
<circle cx="122.8" cy="-0.0" r="2" fill="#E69F00"/>
<circle cx="106.3" cy="61.4" r="2" fill="#E69F00"/>
<circle cx="61.0" cy="105.7" r="2" fill="#E69F00"/>
<circle cx="0.0" cy="125.0" r="2" fill="#E69F00"/>
<circle cx="-60.4" cy="104.6" r="2" fill="#E69F00"/>
<circle cx="-82.5" cy="47.6" r="2" fill="#E69F00"/>
<circle cx="-109.9" cy="0.0" r="2" fill="#E69F00"/>
<circle cx="-92.3" cy="-53.3" r="2" fill="#E69F00"/>
<circle cx="-44.6" cy="-77.3" r="2" fill="#E69F00"/>
<circle cx="0.0" cy="-91.7" r="2" fill="#2060D0"/>
<circle cx="41.9" cy="-72.5" r="2" fill="#2060D0"/>
<circle cx="72.9" cy="-42.1" r="2" fill="#2060D0"/>
<circle cx="81.0" cy="-0.0" r="2" fill="#2060D0"/>
<circle cx="69.8" cy="40.3" r="2" fill="#2060D0"/>
<circle cx="40.5" cy="70.1" r="2" fill="#2060D0"/>
<circle cx="0.0" cy="83.0" r="2" fill="#2060D0"/>
<circle cx="-38.7" cy="67.0" r="2" fill="#2060D0"/>
<circle cx="-61.6" cy="35.6" r="2" fill="#2060D0"/>
<circle cx="-67.7" cy="0.0" r="2" fill="#2060D0"/>
<circle cx="-49.2" cy="-28.4" r="2" fill="#2060D0"/>
<circle cx="-30.2" cy="-52.4" r="2" fill="#2060D0"/>
</g>
<g transform="translate(645, 245)">
<text x="0" y="-190" text-anchor="middle" font-size="12" font-weight="bold" fill="#333">|V| ~ 500</text>
<text x="0" y="-176" text-anchor="middle" font-size="9" font-style="italic" fill="#888">Crossover zone</text>
<circle cx="0" cy="0" r="31.2" fill="none" stroke="#ddd" stroke-width="0.5"/>
<circle cx="0" cy="0" r="62.5" fill="none" stroke="#ddd" stroke-width="0.5"/>
<circle cx="0" cy="0" r="93.8" fill="none" stroke="#ddd" stroke-width="0.5"/>
<circle cx="0" cy="0" r="125.0" fill="none" stroke="#ddd" stroke-width="0.5"/>
<line x1="0" y1="0" x2="0.0" y2="-125.0" stroke="#ccc" stroke-width="0.4"/>
<text x="0.0" y="-144.0" text-anchor="middle" font-size="9" fill="#555">Star</text>
<line x1="0" y1="0" x2="62.5" y2="-108.3" stroke="#ccc" stroke-width="0.4"/>
<text x="73.5" y="-124.3" text-anchor="start" font-size="9" fill="#555">Path</text>
<line x1="0" y1="0" x2="108.3" y2="-62.5" stroke="#ccc" stroke-width="0.4"/>
<text x="127.3" y="-70.5" text-anchor="start" font-size="9" fill="#555">Cycle</text>
<line x1="0" y1="0" x2="125.0" y2="-0.0" stroke="#ccc" stroke-width="0.4"/>
<text x="147.0" y="3.0" text-anchor="start" font-size="9" fill="#555">Grid</text>
<line x1="0" y1="0" x2="108.3" y2="62.5" stroke="#ccc" stroke-width="0.4"/>
<text x="127.3" y="76.5" text-anchor="start" font-size="9" fill="#555">Torus</text>
<line x1="0" y1="0" x2="62.5" y2="108.3" stroke="#ccc" stroke-width="0.4"/>
<text x="73.5" y="130.3" text-anchor="start" font-size="9" fill="#555">Wheel</text>
<line x1="0" y1="0" x2="0.0" y2="125.0" stroke="#ccc" stroke-width="0.4"/>
<text x="0.0" y="142.0" text-anchor="middle" font-size="9" fill="#555">Hex.</text>
<text x="0.0" y="153.0" text-anchor="middle" font-size="9" fill="#555">Lattice</text>
<line x1="0" y1="0" x2="-62.5" y2="108.3" stroke="#ccc" stroke-width="0.4"/>
<text x="-73.5" y="122.3" text-anchor="end" font-size="9" fill="#555">Tri.</text>
<text x="-73.5" y="133.3" text-anchor="end" font-size="9" fill="#555">Lattice</text>
<line x1="0" y1="0" x2="-108.3" y2="62.5" stroke="#ccc" stroke-width="0.4"/>
<text x="-127.3" y="68.5" text-anchor="end" font-size="9" fill="#555">Windmill</text>
<text x="-127.3" y="79.5" text-anchor="end" font-size="9" fill="#555">K4</text>
<line x1="0" y1="0" x2="-125.0" y2="0.0" stroke="#ccc" stroke-width="0.4"/>
<text x="-147.0" y="-5.0" text-anchor="end" font-size="9" fill="#555">Watts</text>
<text x="-147.0" y="6.0" text-anchor="end" font-size="9" fill="#555">Strogatz</text>
<line x1="0" y1="0" x2="-108.3" y2="-62.5" stroke="#ccc" stroke-width="0.4"/>
<text x="-127.3" y="-78.5" text-anchor="end" font-size="9" fill="#555">Erdős</text>
<text x="-127.3" y="-67.5" text-anchor="end" font-size="9" fill="#555">Rényi</text>
<line x1="0" y1="0" x2="-62.5" y2="-108.3" stroke="#ccc" stroke-width="0.4"/>
<text x="-73.5" y="-132.3" text-anchor="end" font-size="9" fill="#555">Barabási</text>
<text x="-73.5" y="-121.3" text-anchor="end" font-size="9" fill="#555">Albert</text>
<polygon points="0.0,-123.2 57.0,-98.8 98.5,-56.9 112.8,-0.0 97.6,56.4 55.8,96.7 0.0,112.7 -53.9,93.4 -88.1,50.9 -99.9,0.0 -72.1,-41.7 -39.8,-69.0" fill="rgba(32,96,208,0.12)" stroke="#2060D0" stroke-width="1.5"/>
<polygon points="0.0,-109.9 62.5,-108.2 108.3,-62.5 124.3,-0.0 107.6,62.1 62.3,107.8 0.0,124.1 -61.9,107.2 -83.7,48.3 -111.3,0.0 -86.0,-49.6 -37.5,-65.0" fill="rgba(230,159,0,0.12)" stroke="#E69F00" stroke-width="1.5"/>
<polygon points="0.0,-75.6 45.5,-78.9 79.5,-45.9 90.2,-0.0 78.4,45.3 45.5,78.8 0.0,91.0 -45.4,78.7 -65.6,37.9 -83.1,0.0 -73.6,-42.5 -37.9,-65.7" fill="rgba(224,48,48,0.12)" stroke="#E03030" stroke-width="1.5"/>
<circle cx="0.0" cy="-75.6" r="2" fill="#E03030"/>
<circle cx="45.5" cy="-78.9" r="2" fill="#E03030"/>
<circle cx="79.5" cy="-45.9" r="2" fill="#E03030"/>
<circle cx="90.2" cy="-0.0" r="2" fill="#E03030"/>
<circle cx="78.4" cy="45.3" r="2" fill="#E03030"/>
<circle cx="45.5" cy="78.8" r="2" fill="#E03030"/>
<circle cx="0.0" cy="91.0" r="2" fill="#E03030"/>
<circle cx="-45.4" cy="78.7" r="2" fill="#E03030"/>
<circle cx="-65.6" cy="37.9" r="2" fill="#E03030"/>
<circle cx="-83.1" cy="0.0" r="2" fill="#E03030"/>
<circle cx="-73.6" cy="-42.5" r="2" fill="#E03030"/>
<circle cx="-37.9" cy="-65.7" r="2" fill="#E03030"/>
<circle cx="0.0" cy="-109.9" r="2" fill="#E69F00"/>
<circle cx="62.5" cy="-108.2" r="2" fill="#E69F00"/>
<circle cx="108.3" cy="-62.5" r="2" fill="#E69F00"/>
<circle cx="124.3" cy="-0.0" r="2" fill="#E69F00"/>
<circle cx="107.6" cy="62.1" r="2" fill="#E69F00"/>
<circle cx="62.3" cy="107.8" r="2" fill="#E69F00"/>
<circle cx="0.0" cy="124.1" r="2" fill="#E69F00"/>
<circle cx="-61.9" cy="107.2" r="2" fill="#E69F00"/>
<circle cx="-83.7" cy="48.3" r="2" fill="#E69F00"/>
<circle cx="-111.3" cy="0.0" r="2" fill="#E69F00"/>
<circle cx="-86.0" cy="-49.6" r="2" fill="#E69F00"/>
<circle cx="-37.5" cy="-65.0" r="2" fill="#E69F00"/>
<circle cx="0.0" cy="-123.2" r="2" fill="#2060D0"/>
<circle cx="57.0" cy="-98.8" r="2" fill="#2060D0"/>
<circle cx="98.5" cy="-56.9" r="2" fill="#2060D0"/>
<circle cx="112.8" cy="-0.0" r="2" fill="#2060D0"/>
<circle cx="97.6" cy="56.4" r="2" fill="#2060D0"/>
<circle cx="55.8" cy="96.7" r="2" fill="#2060D0"/>
<circle cx="0.0" cy="112.7" r="2" fill="#2060D0"/>
<circle cx="-53.9" cy="93.4" r="2" fill="#2060D0"/>
<circle cx="-88.1" cy="50.9" r="2" fill="#2060D0"/>
<circle cx="-99.9" cy="0.0" r="2" fill="#2060D0"/>
<circle cx="-72.1" cy="-41.7" r="2" fill="#2060D0"/>
<circle cx="-39.8" cy="-69.0" r="2" fill="#2060D0"/>
</g>
<g transform="translate(225, 635)">
<text x="0" y="-190" text-anchor="middle" font-size="12" font-weight="bold" fill="#333">|V| ~ 1,000</text>
<text x="0" y="-176" text-anchor="middle" font-size="9" font-style="italic" fill="#888">MV dominates</text>
<circle cx="0" cy="0" r="31.2" fill="none" stroke="#ddd" stroke-width="0.5"/>
<circle cx="0" cy="0" r="62.5" fill="none" stroke="#ddd" stroke-width="0.5"/>
<circle cx="0" cy="0" r="93.8" fill="none" stroke="#ddd" stroke-width="0.5"/>
<circle cx="0" cy="0" r="125.0" fill="none" stroke="#ddd" stroke-width="0.5"/>
<line x1="0" y1="0" x2="0.0" y2="-125.0" stroke="#ccc" stroke-width="0.4"/>
<text x="0.0" y="-144.0" text-anchor="middle" font-size="9" fill="#555">Star</text>
<line x1="0" y1="0" x2="62.5" y2="-108.3" stroke="#ccc" stroke-width="0.4"/>
<text x="73.5" y="-124.3" text-anchor="start" font-size="9" fill="#555">Path</text>
<line x1="0" y1="0" x2="108.3" y2="-62.5" stroke="#ccc" stroke-width="0.4"/>
<text x="127.3" y="-70.5" text-anchor="start" font-size="9" fill="#555">Cycle</text>
<line x1="0" y1="0" x2="125.0" y2="-0.0" stroke="#ccc" stroke-width="0.4"/>
<text x="147.0" y="3.0" text-anchor="start" font-size="9" fill="#555">Grid</text>
<line x1="0" y1="0" x2="108.3" y2="62.5" stroke="#ccc" stroke-width="0.4"/>
<text x="127.3" y="76.5" text-anchor="start" font-size="9" fill="#555">Torus</text>
<line x1="0" y1="0" x2="62.5" y2="108.3" stroke="#ccc" stroke-width="0.4"/>
<text x="73.5" y="130.3" text-anchor="start" font-size="9" fill="#555">Wheel</text>
<line x1="0" y1="0" x2="0.0" y2="125.0" stroke="#ccc" stroke-width="0.4"/>
<text x="0.0" y="142.0" text-anchor="middle" font-size="9" fill="#555">Hex.</text>
<text x="0.0" y="153.0" text-anchor="middle" font-size="9" fill="#555">Lattice</text>
<line x1="0" y1="0" x2="-62.5" y2="108.3" stroke="#ccc" stroke-width="0.4"/>
<text x="-73.5" y="122.3" text-anchor="end" font-size="9" fill="#555">Tri.</text>
<text x="-73.5" y="133.3" text-anchor="end" font-size="9" fill="#555">Lattice</text>
<line x1="0" y1="0" x2="-108.3" y2="62.5" stroke="#ccc" stroke-width="0.4"/>
<text x="-127.3" y="68.5" text-anchor="end" font-size="9" fill="#555">Windmill</text>
<text x="-127.3" y="79.5" text-anchor="end" font-size="9" fill="#555">K4</text>
<line x1="0" y1="0" x2="-125.0" y2="0.0" stroke="#ccc" stroke-width="0.4"/>
<text x="-147.0" y="-5.0" text-anchor="end" font-size="9" fill="#555">Watts</text>
<text x="-147.0" y="6.0" text-anchor="end" font-size="9" fill="#555">Strogatz</text>
<line x1="0" y1="0" x2="-108.3" y2="-62.5" stroke="#ccc" stroke-width="0.4"/>
<text x="-127.3" y="-78.5" text-anchor="end" font-size="9" fill="#555">Erdős</text>
<text x="-127.3" y="-67.5" text-anchor="end" font-size="9" fill="#555">Rényi</text>
<line x1="0" y1="0" x2="-62.5" y2="-108.3" stroke="#ccc" stroke-width="0.4"/>
<text x="-73.5" y="-132.3" text-anchor="end" font-size="9" fill="#555">Barabási</text>
<text x="-73.5" y="-121.3" text-anchor="end" font-size="9" fill="#555">Albert</text>
<polygon points="0.0,-125.0 58.5,-101.4 101.4,-58.5 114.8,-0.0 99.2,57.3 57.4,99.3 0.0,115.8 -55.5,96.1 -91.9,53.1 -102.9,0.0 -78.0,-45.0 -38.2,-66.1" fill="rgba(32,96,208,0.12)" stroke="#2060D0" stroke-width="1.5"/>
<polygon points="0.0,-99.2 56.5,-97.8 97.9,-56.5 111.6,-0.0 96.5,55.7 56.2,97.3 0.0,112.2 -55.5,96.2 -76.8,44.3 -101.7,0.0 -80.3,-46.3 -45.6,-79.0" fill="rgba(230,159,0,0.12)" stroke="#E69F00" stroke-width="1.5"/>
<polygon points="0.0,-69.1 41.3,-71.6 71.6,-41.3 83.1,-0.0 71.9,41.5 41.6,72.0 0.0,83.5 -41.1,71.1 -61.2,35.3 -79.8,0.0 -67.7,-39.1 -38.7,-67.0" fill="rgba(224,48,48,0.12)" stroke="#E03030" stroke-width="1.5"/>
<circle cx="0.0" cy="-69.1" r="2" fill="#E03030"/>
<circle cx="41.3" cy="-71.6" r="2" fill="#E03030"/>
<circle cx="71.6" cy="-41.3" r="2" fill="#E03030"/>
<circle cx="83.1" cy="-0.0" r="2" fill="#E03030"/>
<circle cx="71.9" cy="41.5" r="2" fill="#E03030"/>
<circle cx="41.6" cy="72.0" r="2" fill="#E03030"/>
<circle cx="0.0" cy="83.5" r="2" fill="#E03030"/>
<circle cx="-41.1" cy="71.1" r="2" fill="#E03030"/>
<circle cx="-61.2" cy="35.3" r="2" fill="#E03030"/>
<circle cx="-79.8" cy="0.0" r="2" fill="#E03030"/>
<circle cx="-67.7" cy="-39.1" r="2" fill="#E03030"/>
<circle cx="-38.7" cy="-67.0" r="2" fill="#E03030"/>
<circle cx="0.0" cy="-99.2" r="2" fill="#E69F00"/>
<circle cx="56.5" cy="-97.8" r="2" fill="#E69F00"/>
<circle cx="97.9" cy="-56.5" r="2" fill="#E69F00"/>
<circle cx="111.6" cy="-0.0" r="2" fill="#E69F00"/>
<circle cx="96.5" cy="55.7" r="2" fill="#E69F00"/>
<circle cx="56.2" cy="97.3" r="2" fill="#E69F00"/>
<circle cx="0.0" cy="112.2" r="2" fill="#E69F00"/>
<circle cx="-55.5" cy="96.2" r="2" fill="#E69F00"/>
<circle cx="-76.8" cy="44.3" r="2" fill="#E69F00"/>
<circle cx="-101.7" cy="0.0" r="2" fill="#E69F00"/>
<circle cx="-80.3" cy="-46.3" r="2" fill="#E69F00"/>
<circle cx="-45.6" cy="-79.0" r="2" fill="#E69F00"/>
<circle cx="0.0" cy="-125.0" r="2" fill="#2060D0"/>
<circle cx="58.5" cy="-101.4" r="2" fill="#2060D0"/>
<circle cx="101.4" cy="-58.5" r="2" fill="#2060D0"/>
<circle cx="114.8" cy="-0.0" r="2" fill="#2060D0"/>
<circle cx="99.2" cy="57.3" r="2" fill="#2060D0"/>
<circle cx="57.4" cy="99.3" r="2" fill="#2060D0"/>
<circle cx="0.0" cy="115.8" r="2" fill="#2060D0"/>
<circle cx="-55.5" cy="96.1" r="2" fill="#2060D0"/>
<circle cx="-91.9" cy="53.1" r="2" fill="#2060D0"/>
<circle cx="-102.9" cy="0.0" r="2" fill="#2060D0"/>
<circle cx="-78.0" cy="-45.0" r="2" fill="#2060D0"/>
<circle cx="-38.2" cy="-66.1" r="2" fill="#2060D0"/>
</g>
<g transform="translate(645, 635)">
<text x="0" y="-190" text-anchor="middle" font-size="12" font-weight="bold" fill="#333">|V| ~ 2,000</text>
<text x="0" y="-176" text-anchor="middle" font-size="9" font-style="italic" fill="#888">MV dominates</text>
<circle cx="0" cy="0" r="31.2" fill="none" stroke="#ddd" stroke-width="0.5"/>
<circle cx="0" cy="0" r="62.5" fill="none" stroke="#ddd" stroke-width="0.5"/>
<circle cx="0" cy="0" r="93.8" fill="none" stroke="#ddd" stroke-width="0.5"/>
<circle cx="0" cy="0" r="125.0" fill="none" stroke="#ddd" stroke-width="0.5"/>
<line x1="0" y1="0" x2="0.0" y2="-125.0" stroke="#ccc" stroke-width="0.4"/>
<text x="0.0" y="-144.0" text-anchor="middle" font-size="9" fill="#555">Star</text>
<line x1="0" y1="0" x2="62.5" y2="-108.3" stroke="#ccc" stroke-width="0.4"/>
<text x="73.5" y="-124.3" text-anchor="start" font-size="9" fill="#555">Path</text>
<line x1="0" y1="0" x2="108.3" y2="-62.5" stroke="#ccc" stroke-width="0.4"/>
<text x="127.3" y="-70.5" text-anchor="start" font-size="9" fill="#555">Cycle</text>
<line x1="0" y1="0" x2="125.0" y2="-0.0" stroke="#ccc" stroke-width="0.4"/>
<text x="147.0" y="3.0" text-anchor="start" font-size="9" fill="#555">Grid</text>
<line x1="0" y1="0" x2="108.3" y2="62.5" stroke="#ccc" stroke-width="0.4"/>
<text x="127.3" y="76.5" text-anchor="start" font-size="9" fill="#555">Torus</text>
<line x1="0" y1="0" x2="62.5" y2="108.3" stroke="#ccc" stroke-width="0.4"/>
<text x="73.5" y="130.3" text-anchor="start" font-size="9" fill="#555">Wheel</text>
<line x1="0" y1="0" x2="0.0" y2="125.0" stroke="#ccc" stroke-width="0.4"/>
<text x="0.0" y="142.0" text-anchor="middle" font-size="9" fill="#555">Hex.</text>
<text x="0.0" y="153.0" text-anchor="middle" font-size="9" fill="#555">Lattice</text>
<line x1="0" y1="0" x2="-62.5" y2="108.3" stroke="#ccc" stroke-width="0.4"/>
<text x="-73.5" y="122.3" text-anchor="end" font-size="9" fill="#555">Tri.</text>
<text x="-73.5" y="133.3" text-anchor="end" font-size="9" fill="#555">Lattice</text>
<line x1="0" y1="0" x2="-108.3" y2="62.5" stroke="#ccc" stroke-width="0.4"/>
<text x="-127.3" y="68.5" text-anchor="end" font-size="9" fill="#555">Windmill</text>
<text x="-127.3" y="79.5" text-anchor="end" font-size="9" fill="#555">K4</text>
<line x1="0" y1="0" x2="-125.0" y2="0.0" stroke="#ccc" stroke-width="0.4"/>
<text x="-147.0" y="-5.0" text-anchor="end" font-size="9" fill="#555">Watts</text>
<text x="-147.0" y="6.0" text-anchor="end" font-size="9" fill="#555">Strogatz</text>
<line x1="0" y1="0" x2="-108.3" y2="-62.5" stroke="#ccc" stroke-width="0.4"/>
<text x="-127.3" y="-78.5" text-anchor="end" font-size="9" fill="#555">Erdős</text>
<text x="-127.3" y="-67.5" text-anchor="end" font-size="9" fill="#555">Rényi</text>
<line x1="0" y1="0" x2="-62.5" y2="-108.3" stroke="#ccc" stroke-width="0.4"/>
<text x="-73.5" y="-132.3" text-anchor="end" font-size="9" fill="#555">Barabási</text>
<text x="-73.5" y="-121.3" text-anchor="end" font-size="9" fill="#555">Albert</text>
<polygon points="0.0,-125.0 58.8,-101.8 101.9,-58.8 109.8,-0.0 87.3,50.4 57.7,100.0 0.0,116.3 -49.2,85.2 -93.4,53.9 -103.1,0.0 -79.6,-46.0 -41.5,-71.9" fill="rgba(32,96,208,0.12)" stroke="#2060D0" stroke-width="1.5"/>
<polygon points="0.0,-87.9 50.1,-86.7 86.6,-50.0 99.6,-0.0 73.3,42.3 50.0,86.6 0.0,100.9 -40.7,70.5 -69.5,40.1 -91.6,0.0 -65.9,-38.0 -41.9,-72.5" fill="rgba(230,159,0,0.12)" stroke="#E69F00" stroke-width="1.5"/>
<polygon points="0.0,-64.2 38.1,-66.0 65.6,-37.9 75.6,-0.0 61.5,35.5 38.1,66.0 0.0,76.0 -34.7,60.1 -55.8,32.2 -72.5,0.0 -59.8,-34.5 -35.5,-61.4" fill="rgba(224,48,48,0.12)" stroke="#E03030" stroke-width="1.5"/>
<circle cx="0.0" cy="-64.2" r="2" fill="#E03030"/>
<circle cx="38.1" cy="-66.0" r="2" fill="#E03030"/>
<circle cx="65.6" cy="-37.9" r="2" fill="#E03030"/>
<circle cx="75.6" cy="-0.0" r="2" fill="#E03030"/>
<circle cx="61.5" cy="35.5" r="2" fill="#E03030"/>
<circle cx="38.1" cy="66.0" r="2" fill="#E03030"/>
<circle cx="0.0" cy="76.0" r="2" fill="#E03030"/>
<circle cx="-34.7" cy="60.1" r="2" fill="#E03030"/>
<circle cx="-55.8" cy="32.2" r="2" fill="#E03030"/>
<circle cx="-72.5" cy="0.0" r="2" fill="#E03030"/>
<circle cx="-59.8" cy="-34.5" r="2" fill="#E03030"/>
<circle cx="-35.5" cy="-61.4" r="2" fill="#E03030"/>
<circle cx="0.0" cy="-87.9" r="2" fill="#E69F00"/>
<circle cx="50.1" cy="-86.7" r="2" fill="#E69F00"/>
<circle cx="86.6" cy="-50.0" r="2" fill="#E69F00"/>
<circle cx="99.6" cy="-0.0" r="2" fill="#E69F00"/>
<circle cx="73.3" cy="42.3" r="2" fill="#E69F00"/>
<circle cx="50.0" cy="86.6" r="2" fill="#E69F00"/>
<circle cx="0.0" cy="100.9" r="2" fill="#E69F00"/>
<circle cx="-40.7" cy="70.5" r="2" fill="#E69F00"/>
<circle cx="-69.5" cy="40.1" r="2" fill="#E69F00"/>
<circle cx="-91.6" cy="0.0" r="2" fill="#E69F00"/>
<circle cx="-65.9" cy="-38.0" r="2" fill="#E69F00"/>
<circle cx="-41.9" cy="-72.5" r="2" fill="#E69F00"/>
<circle cx="0.0" cy="-125.0" r="2" fill="#2060D0"/>
<circle cx="58.8" cy="-101.8" r="2" fill="#2060D0"/>
<circle cx="101.9" cy="-58.8" r="2" fill="#2060D0"/>
<circle cx="109.8" cy="-0.0" r="2" fill="#2060D0"/>
<circle cx="87.3" cy="50.4" r="2" fill="#2060D0"/>
<circle cx="57.7" cy="100.0" r="2" fill="#2060D0"/>
<circle cx="0.0" cy="116.3" r="2" fill="#2060D0"/>
<circle cx="-49.2" cy="85.2" r="2" fill="#2060D0"/>
<circle cx="-93.4" cy="53.9" r="2" fill="#2060D0"/>
<circle cx="-103.1" cy="0.0" r="2" fill="#2060D0"/>
<circle cx="-79.6" cy="-46.0" r="2" fill="#2060D0"/>
<circle cx="-41.5" cy="-71.9" r="2" fill="#2060D0"/>
</g>
<rect x="260" y="833" width="10" height="10" fill="rgba(224,48,48,0.8)" stroke="#E03030" stroke-width="1" rx="2"/>
<text x="274" y="842" font-size="9" fill="#555">Blossom</text>
<rect x="340" y="833" width="10" height="10" fill="rgba(230,159,0,0.8)" stroke="#E69F00" stroke-width="1" rx="2"/>
<text x="354" y="842" font-size="9" fill="#555">Gabow 1976</text>
<rect x="438" y="833" width="10" height="10" fill="rgba(32,96,208,0.8)" stroke="#2060D0" stroke-width="1" rx="2"/>
<text x="452" y="842" font-size="9" fill="#555">Micali-Vazirani</text>
<text x="862" y="865" text-anchor="end" font-size="7" fill="#bbb">github.com/LucaCappelletti94/maximal-matching-benchmark</text>
</svg>