<?xml version="1.0" encoding="UTF-8"?>
<svg xmlns="http://www.w3.org/2000/svg" viewBox="0 0 870 855" width="870" height="855" font-family="system-ui, -apple-system, sans-serif">
<rect width="870" height="855" fill="#fafafa" rx="8"/>
<text x="435" y="28" text-anchor="middle" font-size="15" font-weight="bold" fill="#1a1a2e">Blossom vs Micali-Vazirani: Performance Across Topologies at Increasing Scale</text>
<line x1="435" y1="42" x2="435" y2="808" stroke="#e0e0e0" stroke-width="1"/>
<line x1="30" y1="425" x2="840" y2="425" stroke="#e0e0e0" stroke-width="1"/>

<!-- Panel: |V| ~ 100 (top-left) -->
<g transform="translate(225, 255)">
<text x="0" y="-200" text-anchor="middle" font-size="13" font-weight="bold" fill="#333">|V| ~ 100</text>
<text x="0" y="-185" text-anchor="middle" font-size="10" font-style="italic" fill="#888">Blossom dominates</text>
<circle cx="0" cy="0" r="33.8" fill="none" stroke="#ddd" stroke-width="0.6"/>
<circle cx="0" cy="0" r="67.5" fill="none" stroke="#ddd" stroke-width="0.6"/>
<circle cx="0" cy="0" r="101.2" fill="none" stroke="#ddd" stroke-width="0.6"/>
<circle cx="0" cy="0" r="135.0" fill="none" stroke="#ddd" stroke-width="0.6"/>
<line x1="0" y1="0" x2="0" y2="-135" stroke="#ccc" stroke-width="0.6"/>
<text x="0" y="-155" text-anchor="middle" font-size="11" fill="#555">Star</text>
<line x1="0" y1="0" x2="86.8" y2="-103.4" stroke="#ccc" stroke-width="0.6"/>
<text x="102.2" y="-117.8" text-anchor="start" font-size="11" fill="#555">Path</text>
<line x1="0" y1="0" x2="132.9" y2="-23.4" stroke="#ccc" stroke-width="0.6"/>
<text x="156.6" y="-23.6" text-anchor="start" font-size="11" fill="#555">Cycle</text>
<line x1="0" y1="0" x2="116.9" y2="67.5" stroke="#ccc" stroke-width="0.6"/>
<text x="137.7" y="83.5" text-anchor="start" font-size="11" fill="#555">Grid</text>
<line x1="0" y1="0" x2="46.2" y2="126.9" stroke="#ccc" stroke-width="0.6"/>
<text x="54.4" y="161.4" text-anchor="middle" font-size="11" fill="#555">Torus</text>
<line x1="0" y1="0" x2="-46.2" y2="126.9" stroke="#ccc" stroke-width="0.6"/>
<text x="-54.4" y="161.4" text-anchor="middle" font-size="11" fill="#555">Wheel</text>
<line x1="0" y1="0" x2="-116.9" y2="67.5" stroke="#ccc" stroke-width="0.6"/>
<text x="-137.7" y="77" text-anchor="end" font-size="11" fill="#555"><tspan x="-137.7">Watts</tspan><tspan x="-137.7" dy="13">Strogatz</tspan></text>
<line x1="0" y1="0" x2="-132.9" y2="-23.4" stroke="#ccc" stroke-width="0.6"/>
<text x="-156.6" y="-30" text-anchor="end" font-size="11" fill="#555"><tspan x="-156.6">Erdős</tspan><tspan x="-156.6" dy="13">Rényi</tspan></text>
<line x1="0" y1="0" x2="-86.8" y2="-103.4" stroke="#ccc" stroke-width="0.6"/>
<text x="-102.2" y="-124" text-anchor="end" font-size="11" fill="#555"><tspan x="-102.2">Barabási</tspan><tspan x="-102.2" dy="13">Albert</tspan></text>
<polygon points="0,-98.7 86.7,-103.4 132.9,-23.4 115.8,66.8 45.8,125.7 -45.6,125.3 -101.4,58.5 -112.2,-19.8 -56.7,-67.5" fill="rgba(220,60,60,0.20)" stroke="#dc3c3c" stroke-width="1.8"/>
<polygon points="0,-116.3 60.7,-72.4 94.8,-16.7 76.6,44.2 30.2,83.0 -30.3,83.2 -45.3,26.1 -23.9,-4.2 -19.5,-23.2" fill="rgba(50,100,200,0.20)" stroke="#3264c8" stroke-width="1.8"/>
<circle cx="0" cy="-98.7" r="3" fill="#dc3c3c"/>
<circle cx="0" cy="-116.3" r="3" fill="#3264c8"/>
<circle cx="86.7" cy="-103.4" r="3" fill="#dc3c3c"/>
<circle cx="60.7" cy="-72.4" r="3" fill="#3264c8"/>
<circle cx="132.9" cy="-23.4" r="3" fill="#dc3c3c"/>
<circle cx="94.8" cy="-16.7" r="3" fill="#3264c8"/>
<circle cx="115.8" cy="66.8" r="3" fill="#dc3c3c"/>
<circle cx="76.6" cy="44.2" r="3" fill="#3264c8"/>
<circle cx="45.8" cy="125.7" r="3" fill="#dc3c3c"/>
<circle cx="30.2" cy="83.0" r="3" fill="#3264c8"/>
<circle cx="-45.6" cy="125.3" r="3" fill="#dc3c3c"/>
<circle cx="-30.3" cy="83.2" r="3" fill="#3264c8"/>
<circle cx="-101.4" cy="58.5" r="3" fill="#dc3c3c"/>
<circle cx="-45.3" cy="26.1" r="3" fill="#3264c8"/>
<circle cx="-112.2" cy="-19.8" r="3" fill="#dc3c3c"/>
<circle cx="-23.9" cy="-4.2" r="3" fill="#3264c8"/>
<circle cx="-56.7" cy="-67.5" r="3" fill="#dc3c3c"/>
<circle cx="-19.5" cy="-23.2" r="3" fill="#3264c8"/>
<text x="-65.3" y="-27.8" text-anchor="middle" font-size="8" font-weight="bold" fill="#dc3c3c">B 4.8x</text>
</g>

<!-- Panel: |V| ~ 500 (top-right) -->
<g transform="translate(645, 255)">
<text x="0" y="-200" text-anchor="middle" font-size="13" font-weight="bold" fill="#333">|V| ~ 500</text>
<text x="0" y="-185" text-anchor="middle" font-size="10" font-style="italic" fill="#888">Crossover zone</text>
<circle cx="0" cy="0" r="33.8" fill="none" stroke="#ddd" stroke-width="0.6"/>
<circle cx="0" cy="0" r="67.5" fill="none" stroke="#ddd" stroke-width="0.6"/>
<circle cx="0" cy="0" r="101.2" fill="none" stroke="#ddd" stroke-width="0.6"/>
<circle cx="0" cy="0" r="135.0" fill="none" stroke="#ddd" stroke-width="0.6"/>
<line x1="0" y1="0" x2="0" y2="-135" stroke="#ccc" stroke-width="0.6"/>
<text x="0" y="-155" text-anchor="middle" font-size="11" fill="#555">Star</text>
<line x1="0" y1="0" x2="86.8" y2="-103.4" stroke="#ccc" stroke-width="0.6"/>
<text x="102.2" y="-117.8" text-anchor="start" font-size="11" fill="#555">Path</text>
<line x1="0" y1="0" x2="132.9" y2="-23.4" stroke="#ccc" stroke-width="0.6"/>
<text x="156.6" y="-23.6" text-anchor="start" font-size="11" fill="#555">Cycle</text>
<line x1="0" y1="0" x2="116.9" y2="67.5" stroke="#ccc" stroke-width="0.6"/>
<text x="137.7" y="83.5" text-anchor="start" font-size="11" fill="#555">Grid</text>
<line x1="0" y1="0" x2="46.2" y2="126.9" stroke="#ccc" stroke-width="0.6"/>
<text x="54.4" y="161.4" text-anchor="middle" font-size="11" fill="#555">Torus</text>
<line x1="0" y1="0" x2="-46.2" y2="126.9" stroke="#ccc" stroke-width="0.6"/>
<text x="-54.4" y="161.4" text-anchor="middle" font-size="11" fill="#555">Wheel</text>
<line x1="0" y1="0" x2="-116.9" y2="67.5" stroke="#ccc" stroke-width="0.6"/>
<text x="-137.7" y="77" text-anchor="end" font-size="11" fill="#555"><tspan x="-137.7">Watts</tspan><tspan x="-137.7" dy="13">Strogatz</tspan></text>
<line x1="0" y1="0" x2="-132.9" y2="-23.4" stroke="#ccc" stroke-width="0.6"/>
<text x="-156.6" y="-30" text-anchor="end" font-size="11" fill="#555"><tspan x="-156.6">Erdős</tspan><tspan x="-156.6" dy="13">Rényi</tspan></text>
<line x1="0" y1="0" x2="-86.8" y2="-103.4" stroke="#ccc" stroke-width="0.6"/>
<text x="-102.2" y="-124" text-anchor="end" font-size="11" fill="#555"><tspan x="-102.2">Barabási</tspan><tspan x="-102.2" dy="13">Albert</tspan></text>
<polygon points="0,-33.7 44.0,-52.5 67.5,-11.9 58.1,33.5 22.9,63.0 -23.4,64.2 -49.8,28.7 -52.1,-9.2 -21.8,-26.0" fill="rgba(220,60,60,0.20)" stroke="#dc3c3c" stroke-width="1.8"/>
<polygon points="0,-135.0 72.1,-85.9 110.2,-19.4 91.2,52.6 36.0,99.0 -36.1,99.2 -69.1,39.9 -39.3,-6.9 -15.6,-18.6" fill="rgba(50,100,200,0.20)" stroke="#3264c8" stroke-width="1.8"/>
<circle cx="0" cy="-33.7" r="3" fill="#dc3c3c"/>
<circle cx="0" cy="-135.0" r="3" fill="#3264c8"/>
<circle cx="44.0" cy="-52.5" r="3" fill="#dc3c3c"/>
<circle cx="72.1" cy="-85.9" r="3" fill="#3264c8"/>
<circle cx="67.5" cy="-11.9" r="3" fill="#dc3c3c"/>
<circle cx="110.2" cy="-19.4" r="3" fill="#3264c8"/>
<circle cx="58.1" cy="33.5" r="3" fill="#dc3c3c"/>
<circle cx="91.2" cy="52.6" r="3" fill="#3264c8"/>
<circle cx="22.9" cy="63.0" r="3" fill="#dc3c3c"/>
<circle cx="36.0" cy="99.0" r="3" fill="#3264c8"/>
<circle cx="-23.4" cy="64.2" r="3" fill="#dc3c3c"/>
<circle cx="-36.1" cy="99.2" r="3" fill="#3264c8"/>
<circle cx="-49.8" cy="28.7" r="3" fill="#dc3c3c"/>
<circle cx="-69.1" cy="39.9" r="3" fill="#3264c8"/>
<circle cx="-52.1" cy="-9.2" r="3" fill="#dc3c3c"/>
<circle cx="-39.3" cy="-6.9" r="3" fill="#3264c8"/>
<circle cx="-21.8" cy="-26.0" r="3" fill="#dc3c3c"/>
<circle cx="-15.6" cy="-18.6" r="3" fill="#3264c8"/>
<text x="16" y="-84.3" text-anchor="middle" font-size="8" font-weight="bold" fill="#3264c8">MV 7.3x</text>
</g>

<!-- Panel: |V| ~ 1,000 (bottom-left) -->
<g transform="translate(225, 650)">
<text x="0" y="-200" text-anchor="middle" font-size="13" font-weight="bold" fill="#333">|V| ~ 1,000</text>
<text x="0" y="-185" text-anchor="middle" font-size="10" font-style="italic" fill="#888">MV dominates</text>
<circle cx="0" cy="0" r="33.8" fill="none" stroke="#ddd" stroke-width="0.6"/>
<circle cx="0" cy="0" r="67.5" fill="none" stroke="#ddd" stroke-width="0.6"/>
<circle cx="0" cy="0" r="101.2" fill="none" stroke="#ddd" stroke-width="0.6"/>
<circle cx="0" cy="0" r="135.0" fill="none" stroke="#ddd" stroke-width="0.6"/>
<line x1="0" y1="0" x2="0" y2="-135" stroke="#ccc" stroke-width="0.6"/>
<text x="0" y="-155" text-anchor="middle" font-size="11" fill="#555">Star</text>
<line x1="0" y1="0" x2="86.8" y2="-103.4" stroke="#ccc" stroke-width="0.6"/>
<text x="102.2" y="-117.8" text-anchor="start" font-size="11" fill="#555">Path</text>
<line x1="0" y1="0" x2="132.9" y2="-23.4" stroke="#ccc" stroke-width="0.6"/>
<text x="156.6" y="-23.6" text-anchor="start" font-size="11" fill="#555">Cycle</text>
<line x1="0" y1="0" x2="116.9" y2="67.5" stroke="#ccc" stroke-width="0.6"/>
<text x="137.7" y="83.5" text-anchor="start" font-size="11" fill="#555">Grid</text>
<line x1="0" y1="0" x2="46.2" y2="126.9" stroke="#ccc" stroke-width="0.6"/>
<text x="54.4" y="161.4" text-anchor="middle" font-size="11" fill="#555">Torus</text>
<line x1="0" y1="0" x2="-46.2" y2="126.9" stroke="#ccc" stroke-width="0.6"/>
<text x="-54.4" y="161.4" text-anchor="middle" font-size="11" fill="#555">Wheel</text>
<line x1="0" y1="0" x2="-116.9" y2="67.5" stroke="#ccc" stroke-width="0.6"/>
<text x="-137.7" y="77" text-anchor="end" font-size="11" fill="#555"><tspan x="-137.7">Watts</tspan><tspan x="-137.7" dy="13">Strogatz</tspan></text>
<line x1="0" y1="0" x2="-132.9" y2="-23.4" stroke="#ccc" stroke-width="0.6"/>
<text x="-156.6" y="-30" text-anchor="end" font-size="11" fill="#555"><tspan x="-156.6">Erdős</tspan><tspan x="-156.6" dy="13">Rényi</tspan></text>
<line x1="0" y1="0" x2="-86.8" y2="-103.4" stroke="#ccc" stroke-width="0.6"/>
<text x="-102.2" y="-124" text-anchor="end" font-size="11" fill="#555"><tspan x="-102.2">Barabási</tspan><tspan x="-102.2" dy="13">Albert</tspan></text>
<polygon points="0,-29.7 36.3,-43.2 55.6,-9.8 44.5,25.7 18.6,51.2 -18.2,49.9 -42.2,24.4 -43.9,-7.7 -26.9,-32.0" fill="rgba(220,60,60,0.20)" stroke="#dc3c3c" stroke-width="1.8"/>
<polygon points="0,-135.0 75.3,-89.7 115.2,-20.3 96.4,55.7 37.6,103.3 -37.8,104.0 -75.6,43.7 -61.5,-10.9 -15.6,-18.6" fill="rgba(50,100,200,0.20)" stroke="#3264c8" stroke-width="1.8"/>
<circle cx="0" cy="-29.7" r="3" fill="#dc3c3c"/>
<circle cx="0" cy="-135.0" r="3" fill="#3264c8"/>
<circle cx="36.3" cy="-43.2" r="3" fill="#dc3c3c"/>
<circle cx="75.3" cy="-89.7" r="3" fill="#3264c8"/>
<circle cx="55.6" cy="-9.8" r="3" fill="#dc3c3c"/>
<circle cx="115.2" cy="-20.3" r="3" fill="#3264c8"/>
<circle cx="44.5" cy="25.7" r="3" fill="#dc3c3c"/>
<circle cx="96.4" cy="55.7" r="3" fill="#3264c8"/>
<circle cx="18.6" cy="51.2" r="3" fill="#dc3c3c"/>
<circle cx="37.6" cy="103.3" r="3" fill="#3264c8"/>
<circle cx="-18.2" cy="49.9" r="3" fill="#dc3c3c"/>
<circle cx="-37.8" cy="104.0" r="3" fill="#3264c8"/>
<circle cx="-42.2" cy="24.4" r="3" fill="#dc3c3c"/>
<circle cx="-75.6" cy="43.7" r="3" fill="#3264c8"/>
<circle cx="-43.9" cy="-7.7" r="3" fill="#dc3c3c"/>
<circle cx="-61.5" cy="-10.9" r="3" fill="#3264c8"/>
<circle cx="-26.9" cy="-32.0" r="3" fill="#dc3c3c"/>
<circle cx="-15.6" cy="-18.6" r="3" fill="#3264c8"/>
<text x="16" y="-82.4" text-anchor="middle" font-size="8" font-weight="bold" fill="#3264c8">MV 15.0x</text>
<text x="-9" y="-35.6" text-anchor="middle" font-size="8" font-weight="bold" fill="#dc3c3c">B 1.6x</text>
</g>

<!-- Panel: |V| ~ 2,000 (bottom-right) -->
<g transform="translate(645, 650)">
<text x="0" y="-200" text-anchor="middle" font-size="13" font-weight="bold" fill="#333">|V| ~ 2,000</text>
<text x="0" y="-185" text-anchor="middle" font-size="10" font-style="italic" fill="#888">MV dominates</text>
<circle cx="0" cy="0" r="33.8" fill="none" stroke="#ddd" stroke-width="0.6"/>
<circle cx="0" cy="0" r="67.5" fill="none" stroke="#ddd" stroke-width="0.6"/>
<circle cx="0" cy="0" r="101.2" fill="none" stroke="#ddd" stroke-width="0.6"/>
<circle cx="0" cy="0" r="135.0" fill="none" stroke="#ddd" stroke-width="0.6"/>
<line x1="0" y1="0" x2="0" y2="-135" stroke="#ccc" stroke-width="0.6"/>
<text x="0" y="-155" text-anchor="middle" font-size="11" fill="#555">Star</text>
<line x1="0" y1="0" x2="86.8" y2="-103.4" stroke="#ccc" stroke-width="0.6"/>
<text x="102.2" y="-117.8" text-anchor="start" font-size="11" fill="#555">Path</text>
<line x1="0" y1="0" x2="132.9" y2="-23.4" stroke="#ccc" stroke-width="0.6"/>
<text x="156.6" y="-23.6" text-anchor="start" font-size="11" fill="#555">Cycle</text>
<line x1="0" y1="0" x2="116.9" y2="67.5" stroke="#ccc" stroke-width="0.6"/>
<text x="137.7" y="83.5" text-anchor="start" font-size="11" fill="#555">Grid</text>
<line x1="0" y1="0" x2="46.2" y2="126.9" stroke="#ccc" stroke-width="0.6"/>
<text x="54.4" y="161.4" text-anchor="middle" font-size="11" fill="#555">Torus</text>
<line x1="0" y1="0" x2="-46.2" y2="126.9" stroke="#ccc" stroke-width="0.6"/>
<text x="-54.4" y="161.4" text-anchor="middle" font-size="11" fill="#555">Wheel</text>
<line x1="0" y1="0" x2="-116.9" y2="67.5" stroke="#ccc" stroke-width="0.6"/>
<text x="-137.7" y="77" text-anchor="end" font-size="11" fill="#555"><tspan x="-137.7">Watts</tspan><tspan x="-137.7" dy="13">Strogatz</tspan></text>
<line x1="0" y1="0" x2="-132.9" y2="-23.4" stroke="#ccc" stroke-width="0.6"/>
<text x="-156.6" y="-30" text-anchor="end" font-size="11" fill="#555"><tspan x="-156.6">Erdős</tspan><tspan x="-156.6" dy="13">Rényi</tspan></text>
<line x1="0" y1="0" x2="-86.8" y2="-103.4" stroke="#ccc" stroke-width="0.6"/>
<text x="-102.2" y="-124" text-anchor="end" font-size="11" fill="#555"><tspan x="-102.2">Barabási</tspan><tspan x="-102.2" dy="13">Albert</tspan></text>
<polygon points="0,-24.3 30.0,-35.8 44.6,-7.9 37.5,21.7 12.5,34.4 -16.1,44.2 -35.4,20.5 -35.0,-6.2 -23.8,-28.4" fill="rgba(220,60,60,0.20)" stroke="#dc3c3c" stroke-width="1.8"/>
<polygon points="0,-135.0 76.0,-90.5 116.3,-20.5 83.6,48.3 30.4,83.4 -39.3,107.9 -79.8,46.1 -70.8,-12.5 -31.7,-37.8" fill="rgba(50,100,200,0.20)" stroke="#3264c8" stroke-width="1.8"/>
<circle cx="0" cy="-24.3" r="3" fill="#dc3c3c"/>
<circle cx="0" cy="-135.0" r="3" fill="#3264c8"/>
<circle cx="30.0" cy="-35.8" r="3" fill="#dc3c3c"/>
<circle cx="76.0" cy="-90.5" r="3" fill="#3264c8"/>
<circle cx="44.6" cy="-7.9" r="3" fill="#dc3c3c"/>
<circle cx="116.3" cy="-20.5" r="3" fill="#3264c8"/>
<circle cx="37.5" cy="21.7" r="3" fill="#dc3c3c"/>
<circle cx="83.6" cy="48.3" r="3" fill="#3264c8"/>
<circle cx="12.5" cy="34.4" r="3" fill="#dc3c3c"/>
<circle cx="30.4" cy="83.4" r="3" fill="#3264c8"/>
<circle cx="-16.1" cy="44.2" r="3" fill="#dc3c3c"/>
<circle cx="-39.3" cy="107.9" r="3" fill="#3264c8"/>
<circle cx="-35.4" cy="20.5" r="3" fill="#dc3c3c"/>
<circle cx="-79.8" cy="46.1" r="3" fill="#3264c8"/>
<circle cx="-35.0" cy="-6.2" r="3" fill="#dc3c3c"/>
<circle cx="-70.8" cy="-12.5" r="3" fill="#3264c8"/>
<circle cx="-23.8" cy="-28.4" r="3" fill="#dc3c3c"/>
<circle cx="-31.7" cy="-37.8" r="3" fill="#3264c8"/>
<text x="16" y="-82" text-anchor="middle" font-size="8" font-weight="bold" fill="#3264c8">MV 34x</text>
<text x="-9" y="-35.6" text-anchor="middle" font-size="8" font-weight="bold" fill="#3264c8">MV 1.5x</text>
</g>

<!-- Legend -->
<rect x="340" y="822" width="12" height="12" fill="rgba(220,60,60,0.3)" stroke="#dc3c3c" stroke-width="1.5" rx="2"/>
<text x="356" y="832" font-size="11" fill="#333">Blossom</text>
<rect x="490" y="822" width="12" height="12" fill="rgba(50,100,200,0.3)" stroke="#3264c8" stroke-width="1.5" rx="2"/>
<text x="506" y="832" font-size="11" fill="#333">Micali-Vazirani</text>
<text x="435" y="844" text-anchor="middle" font-size="9" fill="#aaa">Larger polygon = faster (log-scale, independently normalized per chart) · github.com/LucaCappelletti94/maximal-matching-benchmark · d3fc9e6 · 2026-03-19</text>
</svg>
