<?xml version="1.0" encoding="UTF-8"?>
<svg xmlns="http://www.w3.org/2000/svg" viewBox="0 0 870 855" width="870" height="855" font-family="system-ui, -apple-system, sans-serif">
<rect width="870" height="855" fill="#fafafa" rx="8"/>
<text x="435" y="28" text-anchor="middle" font-size="15" font-weight="bold" fill="#1a1a2e">Blossom vs Micali-Vazirani vs Blum: Performance Across Topologies at Increasing Scale</text>
<line x1="435" y1="42" x2="435" y2="808" stroke="#e0e0e0" stroke-width="1"/>
<line x1="30" y1="425" x2="840" y2="425" stroke="#e0e0e0" stroke-width="1"/>

<!-- Panel: |V| ~ 100 (top-left) -->
<g transform="translate(225, 255)">
<text x="0" y="-200" text-anchor="middle" font-size="13" font-weight="bold" fill="#333">|V| ~ 100</text>
<text x="0" y="-185" text-anchor="middle" font-size="10" font-style="italic" fill="#888">Blossom dominates</text>
<circle cx="0" cy="0" r="33.8" fill="none" stroke="#ddd" stroke-width="0.6"/>
<circle cx="0" cy="0" r="67.5" fill="none" stroke="#ddd" stroke-width="0.6"/>
<circle cx="0" cy="0" r="101.2" fill="none" stroke="#ddd" stroke-width="0.6"/>
<circle cx="0" cy="0" r="135.0" fill="none" stroke="#ddd" stroke-width="0.6"/>
<line x1="0" y1="0" x2="0" y2="-135" stroke="#ccc" stroke-width="0.6"/>
<text x="0" y="-155" text-anchor="middle" font-size="11" fill="#555">Star</text>
<line x1="0" y1="0" x2="86.8" y2="-103.4" stroke="#ccc" stroke-width="0.6"/>
<text x="102.2" y="-117.8" text-anchor="start" font-size="11" fill="#555">Path</text>
<line x1="0" y1="0" x2="132.9" y2="-23.4" stroke="#ccc" stroke-width="0.6"/>
<text x="156.6" y="-23.6" text-anchor="start" font-size="11" fill="#555">Cycle</text>
<line x1="0" y1="0" x2="116.9" y2="67.5" stroke="#ccc" stroke-width="0.6"/>
<text x="137.7" y="83.5" text-anchor="start" font-size="11" fill="#555">Grid</text>
<line x1="0" y1="0" x2="46.2" y2="126.9" stroke="#ccc" stroke-width="0.6"/>
<text x="54.4" y="161.4" text-anchor="middle" font-size="11" fill="#555">Torus</text>
<line x1="0" y1="0" x2="-46.2" y2="126.9" stroke="#ccc" stroke-width="0.6"/>
<text x="-54.4" y="161.4" text-anchor="middle" font-size="11" fill="#555">Wheel</text>
<line x1="0" y1="0" x2="-116.9" y2="67.5" stroke="#ccc" stroke-width="0.6"/>
<text x="-137.7" y="77" text-anchor="end" font-size="11" fill="#555"><tspan x="-137.7">Watts</tspan><tspan x="-137.7" dy="13">Strogatz</tspan></text>
<line x1="0" y1="0" x2="-132.9" y2="-23.4" stroke="#ccc" stroke-width="0.6"/>
<text x="-156.6" y="-30" text-anchor="end" font-size="11" fill="#555"><tspan x="-156.6">Erdős</tspan><tspan x="-156.6" dy="13">Rényi</tspan></text>
<line x1="0" y1="0" x2="-86.8" y2="-103.4" stroke="#ccc" stroke-width="0.6"/>
<text x="-102.2" y="-124" text-anchor="end" font-size="11" fill="#555"><tspan x="-102.2">Barabási</tspan><tspan x="-102.2" dy="13">Albert</tspan></text>
<polygon points="0,-100.5 86.8,-103.4 114.2,-20.1 116.1,67.0 45.7,125.6 -45.8,125.9 -102.6,59.2 -113.8,-20.1 -57.5,-68.5" fill="rgba(220,60,60,0.15)" stroke="#dc3c3c" stroke-width="1.8"/>
<polygon points="0,-121.1 63.4,-75.6 97.2,-17.1 79.6,46.0 31.0,85.0 -31.3,86.1 -52.0,30.0 -31.6,-5.6 -26.5,-31.5" fill="rgba(50,100,200,0.15)" stroke="#3264c8" stroke-width="1.8"/>
<polygon points="0,-95.7 58.8,-70.0 89.4,-15.8 76.4,44.1 29.6,81.4 -29.5,81.0 -47.0,27.1 -38.8,-6.8 -15.6,-18.6" fill="rgba(44,160,44,0.15)" stroke="#2ca02c" stroke-width="1.8"/>
<circle cx="0" cy="-100.5" r="2.5" fill="#dc3c3c"/><circle cx="0" cy="-121.1" r="2.5" fill="#3264c8"/><circle cx="0" cy="-95.7" r="2.5" fill="#2ca02c"/>
<circle cx="86.8" cy="-103.4" r="2.5" fill="#dc3c3c"/><circle cx="63.4" cy="-75.6" r="2.5" fill="#3264c8"/><circle cx="58.8" cy="-70.0" r="2.5" fill="#2ca02c"/>
<circle cx="114.2" cy="-20.1" r="2.5" fill="#dc3c3c"/><circle cx="97.2" cy="-17.1" r="2.5" fill="#3264c8"/><circle cx="89.4" cy="-15.8" r="2.5" fill="#2ca02c"/>
<circle cx="116.1" cy="67.0" r="2.5" fill="#dc3c3c"/><circle cx="79.6" cy="46.0" r="2.5" fill="#3264c8"/><circle cx="76.4" cy="44.1" r="2.5" fill="#2ca02c"/>
<circle cx="45.7" cy="125.6" r="2.5" fill="#dc3c3c"/><circle cx="31.0" cy="85.0" r="2.5" fill="#3264c8"/><circle cx="29.6" cy="81.4" r="2.5" fill="#2ca02c"/>
<circle cx="-45.8" cy="125.9" r="2.5" fill="#dc3c3c"/><circle cx="-31.3" cy="86.1" r="2.5" fill="#3264c8"/><circle cx="-29.5" cy="81.0" r="2.5" fill="#2ca02c"/>
<circle cx="-102.6" cy="59.2" r="2.5" fill="#dc3c3c"/><circle cx="-52.0" cy="30.0" r="2.5" fill="#3264c8"/><circle cx="-47.0" cy="27.1" r="2.5" fill="#2ca02c"/>
<circle cx="-113.8" cy="-20.1" r="2.5" fill="#dc3c3c"/><circle cx="-31.6" cy="-5.6" r="2.5" fill="#3264c8"/><circle cx="-38.8" cy="-6.8" r="2.5" fill="#2ca02c"/>
<circle cx="-57.5" cy="-68.5" r="2.5" fill="#dc3c3c"/><circle cx="-26.5" cy="-31.5" r="2.5" fill="#3264c8"/><circle cx="-15.6" cy="-18.6" r="2.5" fill="#2ca02c"/>
</g>

<!-- Panel: |V| ~ 500 (top-right) -->
<g transform="translate(645, 255)">
<text x="0" y="-200" text-anchor="middle" font-size="13" font-weight="bold" fill="#333">|V| ~ 500</text>
<text x="0" y="-185" text-anchor="middle" font-size="10" font-style="italic" fill="#888">Crossover zone</text>
<circle cx="0" cy="0" r="33.8" fill="none" stroke="#ddd" stroke-width="0.6"/>
<circle cx="0" cy="0" r="67.5" fill="none" stroke="#ddd" stroke-width="0.6"/>
<circle cx="0" cy="0" r="101.2" fill="none" stroke="#ddd" stroke-width="0.6"/>
<circle cx="0" cy="0" r="135.0" fill="none" stroke="#ddd" stroke-width="0.6"/>
<line x1="0" y1="0" x2="0" y2="-135" stroke="#ccc" stroke-width="0.6"/>
<text x="0" y="-155" text-anchor="middle" font-size="11" fill="#555">Star</text>
<line x1="0" y1="0" x2="86.8" y2="-103.4" stroke="#ccc" stroke-width="0.6"/>
<text x="102.2" y="-117.8" text-anchor="start" font-size="11" fill="#555">Path</text>
<line x1="0" y1="0" x2="132.9" y2="-23.4" stroke="#ccc" stroke-width="0.6"/>
<text x="156.6" y="-23.6" text-anchor="start" font-size="11" fill="#555">Cycle</text>
<line x1="0" y1="0" x2="116.9" y2="67.5" stroke="#ccc" stroke-width="0.6"/>
<text x="137.7" y="83.5" text-anchor="start" font-size="11" fill="#555">Grid</text>
<line x1="0" y1="0" x2="46.2" y2="126.9" stroke="#ccc" stroke-width="0.6"/>
<text x="54.4" y="161.4" text-anchor="middle" font-size="11" fill="#555">Torus</text>
<line x1="0" y1="0" x2="-46.2" y2="126.9" stroke="#ccc" stroke-width="0.6"/>
<text x="-54.4" y="161.4" text-anchor="middle" font-size="11" fill="#555">Wheel</text>
<line x1="0" y1="0" x2="-116.9" y2="67.5" stroke="#ccc" stroke-width="0.6"/>
<text x="-137.7" y="77" text-anchor="end" font-size="11" fill="#555"><tspan x="-137.7">Watts</tspan><tspan x="-137.7" dy="13">Strogatz</tspan></text>
<line x1="0" y1="0" x2="-132.9" y2="-23.4" stroke="#ccc" stroke-width="0.6"/>
<text x="-156.6" y="-30" text-anchor="end" font-size="11" fill="#555"><tspan x="-156.6">Erdős</tspan><tspan x="-156.6" dy="13">Rényi</tspan></text>
<line x1="0" y1="0" x2="-86.8" y2="-103.4" stroke="#ccc" stroke-width="0.6"/>
<text x="-102.2" y="-124" text-anchor="end" font-size="11" fill="#555"><tspan x="-102.2">Barabási</tspan><tspan x="-102.2" dy="13">Albert</tspan></text>
<polygon points="0,-54.4 52.2,-62.2 80.1,-14.1 69.3,40.0 27.4,75.2 -27.6,75.8 -63.3,36.6 -68.1,-12.0 -35.2,-41.9" fill="rgba(220,60,60,0.15)" stroke="#dc3c3c" stroke-width="1.8"/>
<polygon points="0,-135.0 75.3,-89.7 114.9,-20.3 96.4,55.7 38.0,104.4 -38.2,104.9 -80.3,46.4 -62.8,-11.1 -37.6,-44.8" fill="rgba(50,100,200,0.15)" stroke="#3264c8" stroke-width="1.8"/>
<polygon points="0,-115.1 71.9,-85.7 110.2,-19.4 94.6,54.6 37.4,102.6 -37.1,101.9 -66.7,38.5 -51.0,-9.0 -15.6,-18.6" fill="rgba(44,160,44,0.15)" stroke="#2ca02c" stroke-width="1.8"/>
<circle cx="0" cy="-54.4" r="2.5" fill="#dc3c3c"/><circle cx="0" cy="-135.0" r="2.5" fill="#3264c8"/><circle cx="0" cy="-115.1" r="2.5" fill="#2ca02c"/>
<circle cx="52.2" cy="-62.2" r="2.5" fill="#dc3c3c"/><circle cx="75.3" cy="-89.7" r="2.5" fill="#3264c8"/><circle cx="71.9" cy="-85.7" r="2.5" fill="#2ca02c"/>
<circle cx="80.1" cy="-14.1" r="2.5" fill="#dc3c3c"/><circle cx="114.9" cy="-20.3" r="2.5" fill="#3264c8"/><circle cx="110.2" cy="-19.4" r="2.5" fill="#2ca02c"/>
<circle cx="69.3" cy="40.0" r="2.5" fill="#dc3c3c"/><circle cx="96.4" cy="55.7" r="2.5" fill="#3264c8"/><circle cx="94.6" cy="54.6" r="2.5" fill="#2ca02c"/>
<circle cx="27.4" cy="75.2" r="2.5" fill="#dc3c3c"/><circle cx="38.0" cy="104.4" r="2.5" fill="#3264c8"/><circle cx="37.4" cy="102.6" r="2.5" fill="#2ca02c"/>
<circle cx="-27.6" cy="75.8" r="2.5" fill="#dc3c3c"/><circle cx="-38.2" cy="104.9" r="2.5" fill="#3264c8"/><circle cx="-37.1" cy="101.9" r="2.5" fill="#2ca02c"/>
<circle cx="-63.3" cy="36.6" r="2.5" fill="#dc3c3c"/><circle cx="-80.3" cy="46.4" r="2.5" fill="#3264c8"/><circle cx="-66.7" cy="38.5" r="2.5" fill="#2ca02c"/>
<circle cx="-68.1" cy="-12.0" r="2.5" fill="#dc3c3c"/><circle cx="-62.8" cy="-11.1" r="2.5" fill="#3264c8"/><circle cx="-51.0" cy="-9.0" r="2.5" fill="#2ca02c"/>
<circle cx="-35.2" cy="-41.9" r="2.5" fill="#dc3c3c"/><circle cx="-37.6" cy="-44.8" r="2.5" fill="#3264c8"/><circle cx="-15.6" cy="-18.6" r="2.5" fill="#2ca02c"/>
<text x="16" y="-84.3" text-anchor="middle" font-size="8" font-weight="bold" fill="#3264c8">MV 7.8x</text>
</g>

<!-- Panel: |V| ~ 1,000 (bottom-left) -->
<g transform="translate(225, 650)">
<text x="0" y="-200" text-anchor="middle" font-size="13" font-weight="bold" fill="#333">|V| ~ 1,000</text>
<text x="0" y="-185" text-anchor="middle" font-size="10" font-style="italic" fill="#888">MV dominates</text>
<circle cx="0" cy="0" r="33.8" fill="none" stroke="#ddd" stroke-width="0.6"/>
<circle cx="0" cy="0" r="67.5" fill="none" stroke="#ddd" stroke-width="0.6"/>
<circle cx="0" cy="0" r="101.2" fill="none" stroke="#ddd" stroke-width="0.6"/>
<circle cx="0" cy="0" r="135.0" fill="none" stroke="#ddd" stroke-width="0.6"/>
<line x1="0" y1="0" x2="0" y2="-135" stroke="#ccc" stroke-width="0.6"/>
<text x="0" y="-155" text-anchor="middle" font-size="11" fill="#555">Star</text>
<line x1="0" y1="0" x2="86.8" y2="-103.4" stroke="#ccc" stroke-width="0.6"/>
<text x="102.2" y="-117.8" text-anchor="start" font-size="11" fill="#555">Path</text>
<line x1="0" y1="0" x2="132.9" y2="-23.4" stroke="#ccc" stroke-width="0.6"/>
<text x="156.6" y="-23.6" text-anchor="start" font-size="11" fill="#555">Cycle</text>
<line x1="0" y1="0" x2="116.9" y2="67.5" stroke="#ccc" stroke-width="0.6"/>
<text x="137.7" y="83.5" text-anchor="start" font-size="11" fill="#555">Grid</text>
<line x1="0" y1="0" x2="46.2" y2="126.9" stroke="#ccc" stroke-width="0.6"/>
<text x="54.4" y="161.4" text-anchor="middle" font-size="11" fill="#555">Torus</text>
<line x1="0" y1="0" x2="-46.2" y2="126.9" stroke="#ccc" stroke-width="0.6"/>
<text x="-54.4" y="161.4" text-anchor="middle" font-size="11" fill="#555">Wheel</text>
<line x1="0" y1="0" x2="-116.9" y2="67.5" stroke="#ccc" stroke-width="0.6"/>
<text x="-137.7" y="77" text-anchor="end" font-size="11" fill="#555"><tspan x="-137.7">Watts</tspan><tspan x="-137.7" dy="13">Strogatz</tspan></text>
<line x1="0" y1="0" x2="-132.9" y2="-23.4" stroke="#ccc" stroke-width="0.6"/>
<text x="-156.6" y="-30" text-anchor="end" font-size="11" fill="#555"><tspan x="-156.6">Erdős</tspan><tspan x="-156.6" dy="13">Rényi</tspan></text>
<line x1="0" y1="0" x2="-86.8" y2="-103.4" stroke="#ccc" stroke-width="0.6"/>
<text x="-102.2" y="-124" text-anchor="end" font-size="11" fill="#555"><tspan x="-102.2">Barabási</tspan><tspan x="-102.2" dy="13">Albert</tspan></text>
<polygon points="0,-43.1 42.4,-50.5 64.8,-11.4 55.7,32.2 21.9,60.1 -22.5,61.9 -51.4,29.7 -55.8,-9.8 -34.8,-41.4" fill="rgba(220,60,60,0.15)" stroke="#dc3c3c" stroke-width="1.8"/>
<polygon points="0,-135.0 76.7,-91.4 117.7,-20.8 99.6,57.5 38.8,106.6 -39.1,107.5 -82.4,47.6 -73.2,-12.9 -33.4,-39.8" fill="rgba(50,100,200,0.15)" stroke="#3264c8" stroke-width="1.8"/>
<polygon points="0,-118.1 73.9,-88.1 113.6,-20.0 96.4,55.6 38.3,105.2 -38.3,105.3 -51.8,29.9 -60.7,-10.7 -15.6,-18.6" fill="rgba(44,160,44,0.15)" stroke="#2ca02c" stroke-width="1.8"/>
<circle cx="0" cy="-43.1" r="2.5" fill="#dc3c3c"/><circle cx="0" cy="-135.0" r="2.5" fill="#3264c8"/><circle cx="0" cy="-118.1" r="2.5" fill="#2ca02c"/>
<circle cx="42.4" cy="-50.5" r="2.5" fill="#dc3c3c"/><circle cx="76.7" cy="-91.4" r="2.5" fill="#3264c8"/><circle cx="73.9" cy="-88.1" r="2.5" fill="#2ca02c"/>
<circle cx="64.8" cy="-11.4" r="2.5" fill="#dc3c3c"/><circle cx="117.7" cy="-20.8" r="2.5" fill="#3264c8"/><circle cx="113.6" cy="-20.0" r="2.5" fill="#2ca02c"/>
<circle cx="55.7" cy="32.2" r="2.5" fill="#dc3c3c"/><circle cx="99.6" cy="57.5" r="2.5" fill="#3264c8"/><circle cx="96.4" cy="55.6" r="2.5" fill="#2ca02c"/>
<circle cx="21.9" cy="60.1" r="2.5" fill="#dc3c3c"/><circle cx="38.8" cy="106.6" r="2.5" fill="#3264c8"/><circle cx="38.3" cy="105.2" r="2.5" fill="#2ca02c"/>
<circle cx="-22.5" cy="61.9" r="2.5" fill="#dc3c3c"/><circle cx="-39.1" cy="107.5" r="2.5" fill="#3264c8"/><circle cx="-38.3" cy="105.3" r="2.5" fill="#2ca02c"/>
<circle cx="-51.4" cy="29.7" r="2.5" fill="#dc3c3c"/><circle cx="-82.4" cy="47.6" r="2.5" fill="#3264c8"/><circle cx="-51.8" cy="29.9" r="2.5" fill="#2ca02c"/>
<circle cx="-55.8" cy="-9.8" r="2.5" fill="#dc3c3c"/><circle cx="-73.2" cy="-12.9" r="2.5" fill="#3264c8"/><circle cx="-60.7" cy="-10.7" r="2.5" fill="#2ca02c"/>
<circle cx="-34.8" cy="-41.4" r="2.5" fill="#dc3c3c"/><circle cx="-33.4" cy="-39.8" r="2.5" fill="#3264c8"/><circle cx="-15.6" cy="-18.6" r="2.5" fill="#2ca02c"/>
<text x="16" y="-82.4" text-anchor="middle" font-size="8" font-weight="bold" fill="#3264c8">MV 15.8x</text>
</g>

<!-- Panel: |V| ~ 2,000 (bottom-right) -->
<g transform="translate(645, 650)">
<text x="0" y="-200" text-anchor="middle" font-size="13" font-weight="bold" fill="#333">|V| ~ 2,000</text>
<text x="0" y="-185" text-anchor="middle" font-size="10" font-style="italic" fill="#888">MV dominates</text>
<circle cx="0" cy="0" r="33.8" fill="none" stroke="#ddd" stroke-width="0.6"/>
<circle cx="0" cy="0" r="67.5" fill="none" stroke="#ddd" stroke-width="0.6"/>
<circle cx="0" cy="0" r="101.2" fill="none" stroke="#ddd" stroke-width="0.6"/>
<circle cx="0" cy="0" r="135.0" fill="none" stroke="#ddd" stroke-width="0.6"/>
<line x1="0" y1="0" x2="0" y2="-135" stroke="#ccc" stroke-width="0.6"/>
<text x="0" y="-155" text-anchor="middle" font-size="11" fill="#555">Star</text>
<line x1="0" y1="0" x2="86.8" y2="-103.4" stroke="#ccc" stroke-width="0.6"/>
<text x="102.2" y="-117.8" text-anchor="start" font-size="11" fill="#555">Path</text>
<line x1="0" y1="0" x2="132.9" y2="-23.4" stroke="#ccc" stroke-width="0.6"/>
<text x="156.6" y="-23.6" text-anchor="start" font-size="11" fill="#555">Cycle</text>
<line x1="0" y1="0" x2="116.9" y2="67.5" stroke="#ccc" stroke-width="0.6"/>
<text x="137.7" y="83.5" text-anchor="start" font-size="11" fill="#555">Grid</text>
<line x1="0" y1="0" x2="46.2" y2="126.9" stroke="#ccc" stroke-width="0.6"/>
<text x="54.4" y="161.4" text-anchor="middle" font-size="11" fill="#555">Torus</text>
<line x1="0" y1="0" x2="-46.2" y2="126.9" stroke="#ccc" stroke-width="0.6"/>
<text x="-54.4" y="161.4" text-anchor="middle" font-size="11" fill="#555">Wheel</text>
<line x1="0" y1="0" x2="-116.9" y2="67.5" stroke="#ccc" stroke-width="0.6"/>
<text x="-137.7" y="77" text-anchor="end" font-size="11" fill="#555"><tspan x="-137.7">Watts</tspan><tspan x="-137.7" dy="13">Strogatz</tspan></text>
<line x1="0" y1="0" x2="-132.9" y2="-23.4" stroke="#ccc" stroke-width="0.6"/>
<text x="-156.6" y="-30" text-anchor="end" font-size="11" fill="#555"><tspan x="-156.6">Erdős</tspan><tspan x="-156.6" dy="13">Rényi</tspan></text>
<line x1="0" y1="0" x2="-86.8" y2="-103.4" stroke="#ccc" stroke-width="0.6"/>
<text x="-102.2" y="-124" text-anchor="end" font-size="11" fill="#555"><tspan x="-102.2">Barabási</tspan><tspan x="-102.2" dy="13">Albert</tspan></text>
<polygon points="0,-24.3 28.9,-34.5 45.6,-8.0 38.2,22.1 12.5,34.4 -15.5,42.7 -35.1,20.3 -33.4,-5.9 -23.4,-27.8" fill="rgba(220,60,60,0.15)" stroke="#dc3c3c" stroke-width="1.8"/>
<polygon points="0,-135.0 76.6,-91.3 117.1,-20.7 91.3,52.7 30.3,83.2 -39.5,108.5 -81.0,46.7 -72.3,-12.8 -36.9,-44.0" fill="rgba(50,100,200,0.15)" stroke="#3264c8" stroke-width="1.8"/>
<polygon points="0,-118.8 74.3,-88.5 113.7,-20.1 95.7,55.3 36.3,99.6 -38.4,105.4 -53.1,30.7 -45.9,-8.1 -15.8,-18.9" fill="rgba(44,160,44,0.15)" stroke="#2ca02c" stroke-width="1.8"/>
<circle cx="0" cy="-24.3" r="2.5" fill="#dc3c3c"/><circle cx="0" cy="-135.0" r="2.5" fill="#3264c8"/><circle cx="0" cy="-118.8" r="2.5" fill="#2ca02c"/>
<circle cx="28.9" cy="-34.5" r="2.5" fill="#dc3c3c"/><circle cx="76.6" cy="-91.3" r="2.5" fill="#3264c8"/><circle cx="74.3" cy="-88.5" r="2.5" fill="#2ca02c"/>
<circle cx="45.6" cy="-8.0" r="2.5" fill="#dc3c3c"/><circle cx="117.1" cy="-20.7" r="2.5" fill="#3264c8"/><circle cx="113.7" cy="-20.1" r="2.5" fill="#2ca02c"/>
<circle cx="38.2" cy="22.1" r="2.5" fill="#dc3c3c"/><circle cx="91.3" cy="52.7" r="2.5" fill="#3264c8"/><circle cx="95.7" cy="55.3" r="2.5" fill="#2ca02c"/>
<circle cx="12.5" cy="34.4" r="2.5" fill="#dc3c3c"/><circle cx="30.3" cy="83.2" r="2.5" fill="#3264c8"/><circle cx="36.3" cy="99.6" r="2.5" fill="#2ca02c"/>
<circle cx="-15.5" cy="42.7" r="2.5" fill="#dc3c3c"/><circle cx="-39.5" cy="108.5" r="2.5" fill="#3264c8"/><circle cx="-38.4" cy="105.4" r="2.5" fill="#2ca02c"/>
<circle cx="-35.1" cy="20.3" r="2.5" fill="#dc3c3c"/><circle cx="-81.0" cy="46.7" r="2.5" fill="#3264c8"/><circle cx="-53.1" cy="30.7" r="2.5" fill="#2ca02c"/>
<circle cx="-33.4" cy="-5.9" r="2.5" fill="#dc3c3c"/><circle cx="-72.3" cy="-12.8" r="2.5" fill="#3264c8"/><circle cx="-45.9" cy="-8.1" r="2.5" fill="#2ca02c"/>
<circle cx="-23.4" cy="-27.8" r="2.5" fill="#dc3c3c"/><circle cx="-36.9" cy="-44.0" r="2.5" fill="#3264c8"/><circle cx="-15.8" cy="-18.9" r="2.5" fill="#2ca02c"/>
<text x="16" y="-82" text-anchor="middle" font-size="8" font-weight="bold" fill="#3264c8">MV 32x</text>
</g>

<!-- Legend -->
<rect x="270" y="822" width="12" height="12" fill="rgba(220,60,60,0.3)" stroke="#dc3c3c" stroke-width="1.5" rx="2"/>
<text x="286" y="832" font-size="11" fill="#333">Blossom</text>
<rect x="400" y="822" width="12" height="12" fill="rgba(50,100,200,0.3)" stroke="#3264c8" stroke-width="1.5" rx="2"/>
<text x="416" y="832" font-size="11" fill="#333">Micali-Vazirani</text>
<rect x="560" y="822" width="12" height="12" fill="rgba(44,160,44,0.3)" stroke="#2ca02c" stroke-width="1.5" rx="2"/>
<text x="576" y="832" font-size="11" fill="#333">Blum</text>
<text x="435" y="844" text-anchor="middle" font-size="9" fill="#aaa">Larger polygon = faster (log-scale, independently normalized per chart) · github.com/LucaCappelletti94/maximal-matching-benchmark · 63e7d55 · 2026-03-22</text>
</svg>
