<?xml version="1.0" encoding="UTF-8"?>
<svg xmlns="http://www.w3.org/2000/svg" viewBox="0 0 1320 500" width="1320" height="500" font-family="system-ui, -apple-system, sans-serif">
<rect width="1320" height="500" fill="#fafafa" rx="8"/>
<text x="660.0" y="28" text-anchor="middle" font-size="15" font-weight="bold" fill="#1a1a2e">Blossom vs Micali-Vazirani: Performance Across Topologies at Increasing Scale</text>
<text x="220.0" y="55" text-anchor="middle" font-size="13" font-weight="bold" fill="#333">|V| ~ 100</text>
<text x="220.0" y="70" text-anchor="middle" font-size="10" font-style="italic" fill="#888">Blossom dominates</text>
<circle cx="220.0" cy="255" r="33.8" fill="none" stroke="#ddd" stroke-width="0.6"/>
<circle cx="220.0" cy="255" r="67.5" fill="none" stroke="#ddd" stroke-width="0.6"/>
<circle cx="220.0" cy="255" r="101.2" fill="none" stroke="#ddd" stroke-width="0.6"/>
<circle cx="220.0" cy="255" r="135.0" fill="none" stroke="#ddd" stroke-width="0.6"/>
<line x1="220.0" y1="255" x2="220.0" y2="120.0" stroke="#ccc" stroke-width="0.6"/>
<text x="220.0" y="85.0" text-anchor="middle" font-size="9.5" fill="#555">Star</text>
<line x1="220.0" y1="255" x2="306.8" y2="151.6" stroke="#ccc" stroke-width="0.6"/>
<text x="322.2" y="137.2" text-anchor="start" font-size="9.5" fill="#555">Path</text>
<line x1="220.0" y1="255" x2="352.9" y2="231.6" stroke="#ccc" stroke-width="0.6"/>
<text x="376.6" y="231.4" text-anchor="start" font-size="9.5" fill="#555">Cycle</text>
<line x1="220.0" y1="255" x2="336.9" y2="322.5" stroke="#ccc" stroke-width="0.6"/>
<text x="357.7" y="338.5" text-anchor="start" font-size="9.5" fill="#555">Grid</text>
<line x1="220.0" y1="255" x2="266.2" y2="381.9" stroke="#ccc" stroke-width="0.6"/>
<text x="274.4" y="416.4" text-anchor="middle" font-size="9.5" fill="#555">Torus</text>
<line x1="220.0" y1="255" x2="173.8" y2="381.9" stroke="#ccc" stroke-width="0.6"/>
<text x="165.6" y="416.4" text-anchor="middle" font-size="9.5" fill="#555">Wheel</text>
<line x1="220.0" y1="255" x2="103.1" y2="322.5" stroke="#ccc" stroke-width="0.6"/>
<text x="82.3" y="338.5" text-anchor="end" font-size="9.5" fill="#555">Watts-Strogatz</text>
<line x1="220.0" y1="255" x2="87.1" y2="231.6" stroke="#ccc" stroke-width="0.6"/>
<text x="63.4" y="231.4" text-anchor="end" font-size="9.5" fill="#555">Erdős-Rényi</text>
<line x1="220.0" y1="255" x2="133.2" y2="151.6" stroke="#ccc" stroke-width="0.6"/>
<text x="117.8" y="137.2" text-anchor="end" font-size="9.5" fill="#555">Barabási-Albert</text>
<polygon points="220.0,156.3 306.7,151.6 352.9,231.6 335.8,321.8 265.8,380.7 174.4,380.3 118.6,313.5 107.8,235.2 163.3,187.5" fill="rgba(220,60,60,0.20)" stroke="#dc3c3c" stroke-width="1.8"/>
<polygon points="220.0,138.7 280.7,182.6 314.8,238.3 296.6,299.2 250.2,338.0 189.7,338.2 174.7,281.1 196.1,250.8 200.5,231.8" fill="rgba(50,100,200,0.20)" stroke="#3264c8" stroke-width="1.8"/>
<circle cx="220.0" cy="156.3" r="3" fill="#dc3c3c"/>
<circle cx="220.0" cy="138.7" r="3" fill="#3264c8"/>
<circle cx="306.7" cy="151.6" r="3" fill="#dc3c3c"/>
<circle cx="280.7" cy="182.6" r="3" fill="#3264c8"/>
<circle cx="352.9" cy="231.6" r="3" fill="#dc3c3c"/>
<circle cx="314.8" cy="238.3" r="3" fill="#3264c8"/>
<circle cx="335.8" cy="321.8" r="3" fill="#dc3c3c"/>
<circle cx="296.6" cy="299.2" r="3" fill="#3264c8"/>
<circle cx="265.8" cy="380.7" r="3" fill="#dc3c3c"/>
<circle cx="250.2" cy="338.0" r="3" fill="#3264c8"/>
<circle cx="174.4" cy="380.3" r="3" fill="#dc3c3c"/>
<circle cx="189.7" cy="338.2" r="3" fill="#3264c8"/>
<circle cx="118.6" cy="313.5" r="3" fill="#dc3c3c"/>
<circle cx="174.7" cy="281.1" r="3" fill="#3264c8"/>
<circle cx="107.8" cy="235.2" r="3" fill="#dc3c3c"/>
<circle cx="196.1" cy="250.8" r="3" fill="#3264c8"/>
<circle cx="163.3" cy="187.5" r="3" fill="#dc3c3c"/>
<circle cx="200.5" cy="231.8" r="3" fill="#3264c8"/>
<text x="154.7" y="227.2" text-anchor="middle" font-size="8" font-weight="bold" fill="#dc3c3c">B 4.8x</text>
<text x="660.0" y="55" text-anchor="middle" font-size="13" font-weight="bold" fill="#333">|V| ~ 500</text>
<text x="660.0" y="70" text-anchor="middle" font-size="10" font-style="italic" fill="#888">Crossover zone</text>
<circle cx="660.0" cy="255" r="33.8" fill="none" stroke="#ddd" stroke-width="0.6"/>
<circle cx="660.0" cy="255" r="67.5" fill="none" stroke="#ddd" stroke-width="0.6"/>
<circle cx="660.0" cy="255" r="101.2" fill="none" stroke="#ddd" stroke-width="0.6"/>
<circle cx="660.0" cy="255" r="135.0" fill="none" stroke="#ddd" stroke-width="0.6"/>
<line x1="660.0" y1="255" x2="660.0" y2="120.0" stroke="#ccc" stroke-width="0.6"/>
<text x="660.0" y="85.0" text-anchor="middle" font-size="9.5" fill="#555">Star</text>
<line x1="660.0" y1="255" x2="746.8" y2="151.6" stroke="#ccc" stroke-width="0.6"/>
<text x="762.2" y="137.2" text-anchor="start" font-size="9.5" fill="#555">Path</text>
<line x1="660.0" y1="255" x2="792.9" y2="231.6" stroke="#ccc" stroke-width="0.6"/>
<text x="816.6" y="231.4" text-anchor="start" font-size="9.5" fill="#555">Cycle</text>
<line x1="660.0" y1="255" x2="776.9" y2="322.5" stroke="#ccc" stroke-width="0.6"/>
<text x="797.7" y="338.5" text-anchor="start" font-size="9.5" fill="#555">Grid</text>
<line x1="660.0" y1="255" x2="706.2" y2="381.9" stroke="#ccc" stroke-width="0.6"/>
<text x="714.4" y="416.4" text-anchor="middle" font-size="9.5" fill="#555">Torus</text>
<line x1="660.0" y1="255" x2="613.8" y2="381.9" stroke="#ccc" stroke-width="0.6"/>
<text x="605.6" y="416.4" text-anchor="middle" font-size="9.5" fill="#555">Wheel</text>
<line x1="660.0" y1="255" x2="543.1" y2="322.5" stroke="#ccc" stroke-width="0.6"/>
<text x="522.3" y="338.5" text-anchor="end" font-size="9.5" fill="#555">Watts-Strogatz</text>
<line x1="660.0" y1="255" x2="527.1" y2="231.6" stroke="#ccc" stroke-width="0.6"/>
<text x="503.4" y="231.4" text-anchor="end" font-size="9.5" fill="#555">Erdős-Rényi</text>
<line x1="660.0" y1="255" x2="573.2" y2="151.6" stroke="#ccc" stroke-width="0.6"/>
<text x="557.8" y="137.2" text-anchor="end" font-size="9.5" fill="#555">Barabási-Albert</text>
<polygon points="660.0,221.3 704.0,202.5 727.5,243.1 718.1,288.5 682.9,318.0 636.6,319.2 610.2,283.7 607.9,245.8 638.2,229.0" fill="rgba(220,60,60,0.20)" stroke="#dc3c3c" stroke-width="1.8"/>
<polygon points="660.0,120.0 732.1,169.1 770.2,235.6 751.2,307.6 696.0,354.0 623.9,354.2 590.9,294.9 620.7,248.1 644.4,236.4" fill="rgba(50,100,200,0.20)" stroke="#3264c8" stroke-width="1.8"/>
<circle cx="660.0" cy="221.3" r="3" fill="#dc3c3c"/>
<circle cx="660.0" cy="120.0" r="3" fill="#3264c8"/>
<circle cx="704.0" cy="202.5" r="3" fill="#dc3c3c"/>
<circle cx="732.1" cy="169.1" r="3" fill="#3264c8"/>
<circle cx="727.5" cy="243.1" r="3" fill="#dc3c3c"/>
<circle cx="770.2" cy="235.6" r="3" fill="#3264c8"/>
<circle cx="718.1" cy="288.5" r="3" fill="#dc3c3c"/>
<circle cx="751.2" cy="307.6" r="3" fill="#3264c8"/>
<circle cx="682.9" cy="318.0" r="3" fill="#dc3c3c"/>
<circle cx="696.0" cy="354.0" r="3" fill="#3264c8"/>
<circle cx="636.6" cy="319.2" r="3" fill="#dc3c3c"/>
<circle cx="623.9" cy="354.2" r="3" fill="#3264c8"/>
<circle cx="610.2" cy="283.7" r="3" fill="#dc3c3c"/>
<circle cx="590.9" cy="294.9" r="3" fill="#3264c8"/>
<circle cx="607.9" cy="245.8" r="3" fill="#dc3c3c"/>
<circle cx="620.7" cy="248.1" r="3" fill="#3264c8"/>
<circle cx="638.2" cy="229.0" r="3" fill="#dc3c3c"/>
<circle cx="644.4" cy="236.4" r="3" fill="#3264c8"/>
<text x="676.0" y="170.7" text-anchor="middle" font-size="8" font-weight="bold" fill="#3264c8">MV 7.3x</text>
<text x="1100.0" y="55" text-anchor="middle" font-size="13" font-weight="bold" fill="#333">|V| ~ 1,000</text>
<text x="1100.0" y="70" text-anchor="middle" font-size="10" font-style="italic" fill="#888">MV dominates</text>
<circle cx="1100.0" cy="255" r="33.8" fill="none" stroke="#ddd" stroke-width="0.6"/>
<circle cx="1100.0" cy="255" r="67.5" fill="none" stroke="#ddd" stroke-width="0.6"/>
<circle cx="1100.0" cy="255" r="101.2" fill="none" stroke="#ddd" stroke-width="0.6"/>
<circle cx="1100.0" cy="255" r="135.0" fill="none" stroke="#ddd" stroke-width="0.6"/>
<line x1="1100.0" y1="255" x2="1100.0" y2="120.0" stroke="#ccc" stroke-width="0.6"/>
<text x="1100.0" y="85.0" text-anchor="middle" font-size="9.5" fill="#555">Star</text>
<line x1="1100.0" y1="255" x2="1186.8" y2="151.6" stroke="#ccc" stroke-width="0.6"/>
<text x="1202.2" y="137.2" text-anchor="start" font-size="9.5" fill="#555">Path</text>
<line x1="1100.0" y1="255" x2="1232.9" y2="231.6" stroke="#ccc" stroke-width="0.6"/>
<text x="1256.6" y="231.4" text-anchor="start" font-size="9.5" fill="#555">Cycle</text>
<line x1="1100.0" y1="255" x2="1216.9" y2="322.5" stroke="#ccc" stroke-width="0.6"/>
<text x="1237.7" y="338.5" text-anchor="start" font-size="9.5" fill="#555">Grid</text>
<line x1="1100.0" y1="255" x2="1146.2" y2="381.9" stroke="#ccc" stroke-width="0.6"/>
<text x="1154.4" y="416.4" text-anchor="middle" font-size="9.5" fill="#555">Torus</text>
<line x1="1100.0" y1="255" x2="1053.8" y2="381.9" stroke="#ccc" stroke-width="0.6"/>
<text x="1045.6" y="416.4" text-anchor="middle" font-size="9.5" fill="#555">Wheel</text>
<line x1="1100.0" y1="255" x2="983.1" y2="322.5" stroke="#ccc" stroke-width="0.6"/>
<text x="962.3" y="338.5" text-anchor="end" font-size="9.5" fill="#555">Watts-Strogatz</text>
<line x1="1100.0" y1="255" x2="967.1" y2="231.6" stroke="#ccc" stroke-width="0.6"/>
<text x="943.4" y="231.4" text-anchor="end" font-size="9.5" fill="#555">Erdős-Rényi</text>
<line x1="1100.0" y1="255" x2="1013.2" y2="151.6" stroke="#ccc" stroke-width="0.6"/>
<text x="997.8" y="137.2" text-anchor="end" font-size="9.5" fill="#555">Barabási-Albert</text>
<polygon points="1100.0,225.3 1136.3,211.8 1155.6,245.2 1144.5,280.7 1118.6,306.2 1081.8,304.9 1057.8,279.4 1056.1,247.3 1073.1,223.0" fill="rgba(220,60,60,0.20)" stroke="#dc3c3c" stroke-width="1.8"/>
<polygon points="1100.0,120.0 1175.3,165.3 1215.2,234.7 1196.4,310.7 1137.6,358.3 1062.2,359.0 1024.4,298.7 1038.5,244.1 1084.4,236.4" fill="rgba(50,100,200,0.20)" stroke="#3264c8" stroke-width="1.8"/>
<circle cx="1100.0" cy="225.3" r="3" fill="#dc3c3c"/>
<circle cx="1100.0" cy="120.0" r="3" fill="#3264c8"/>
<circle cx="1136.3" cy="211.8" r="3" fill="#dc3c3c"/>
<circle cx="1175.3" cy="165.3" r="3" fill="#3264c8"/>
<circle cx="1155.6" cy="245.2" r="3" fill="#dc3c3c"/>
<circle cx="1215.2" cy="234.7" r="3" fill="#3264c8"/>
<circle cx="1144.5" cy="280.7" r="3" fill="#dc3c3c"/>
<circle cx="1196.4" cy="310.7" r="3" fill="#3264c8"/>
<circle cx="1118.6" cy="306.2" r="3" fill="#dc3c3c"/>
<circle cx="1137.6" cy="358.3" r="3" fill="#3264c8"/>
<circle cx="1081.8" cy="304.9" r="3" fill="#dc3c3c"/>
<circle cx="1062.2" cy="359.0" r="3" fill="#3264c8"/>
<circle cx="1057.8" cy="279.4" r="3" fill="#dc3c3c"/>
<circle cx="1024.4" cy="298.7" r="3" fill="#3264c8"/>
<circle cx="1056.1" cy="247.3" r="3" fill="#dc3c3c"/>
<circle cx="1038.5" cy="244.1" r="3" fill="#3264c8"/>
<circle cx="1073.1" cy="223.0" r="3" fill="#dc3c3c"/>
<circle cx="1084.4" cy="236.4" r="3" fill="#3264c8"/>
<text x="1116.0" y="172.6" text-anchor="middle" font-size="8" font-weight="bold" fill="#3264c8">MV 15.0x</text>
<text x="1091.0" y="219.4" text-anchor="middle" font-size="8" font-weight="bold" fill="#dc3c3c">B 1.6x</text>
<rect x="530.0" y="458" width="12" height="12" fill="rgba(220,60,60,0.3)" stroke="#dc3c3c" stroke-width="1.5" rx="2"/>
<text x="546.0" y="468" font-size="11" fill="#333">Blossom</text>
<rect x="680.0" y="458" width="12" height="12" fill="rgba(50,100,200,0.3)" stroke="#3264c8" stroke-width="1.5" rx="2"/>
<text x="696.0" y="468" font-size="11" fill="#333">Micali-Vazirani</text>
<text x="660.0" y="490" text-anchor="middle" font-size="9" fill="#aaa">Larger polygon = faster (log-scale, independently normalized per chart)</text>
</svg>
