<?xml version="1.0" encoding="UTF-8"?>
<svg xmlns="http://www.w3.org/2000/svg" viewBox="0 0 870 511" width="870" height="511" font-family="system-ui, -apple-system, sans-serif">
<rect width="870" height="511" fill="#fafafa" rx="8"/>
<text x="435.0" y="15" text-anchor="middle" font-size="13" font-weight="bold" fill="#1a1a2e">Maximum Matching: Log-Log Scaling of Three Algorithms by Topology</text>
<text x="117.0" y="33" text-anchor="middle" font-size="9" font-weight="bold" fill="#333">Star (E = V-1)</text>
<line x1="54.1" y1="37" x2="54.1" y2="217" stroke="#eee" stroke-width="0.5"/>
<text x="54.1" y="226" text-anchor="middle" font-size="6.5" fill="#999">100</text>
<line x1="117.0" y1="37" x2="117.0" y2="217" stroke="#eee" stroke-width="0.5"/>
<text x="117.0" y="226" text-anchor="middle" font-size="6.5" fill="#999">1,000</text>
<line x1="179.9" y1="37" x2="179.9" y2="217" stroke="#eee" stroke-width="0.5"/>
<text x="179.9" y="226" text-anchor="middle" font-size="6.5" fill="#999">10,000</text>
<line x1="27.0" y1="209.8" x2="207.0" y2="209.8" stroke="#eee" stroke-width="0.5"/>
<text x="25.0" y="209.8" text-anchor="end" dominant-baseline="middle" font-size="5.5" fill="#aaa">1µs</text>
<line x1="27.0" y1="181.6" x2="207.0" y2="181.6" stroke="#eee" stroke-width="0.5"/>
<text x="25.0" y="181.6" text-anchor="end" dominant-baseline="middle" font-size="5.5" fill="#aaa">10µs</text>
<line x1="27.0" y1="153.5" x2="207.0" y2="153.5" stroke="#eee" stroke-width="0.5"/>
<text x="25.0" y="153.5" text-anchor="end" dominant-baseline="middle" font-size="5.5" fill="#aaa">100µs</text>
<line x1="27.0" y1="125.3" x2="207.0" y2="125.3" stroke="#eee" stroke-width="0.5"/>
<text x="25.0" y="125.3" text-anchor="end" dominant-baseline="middle" font-size="5.5" fill="#aaa">1ms</text>
<line x1="27.0" y1="97.1" x2="207.0" y2="97.1" stroke="#eee" stroke-width="0.5"/>
<text x="25.0" y="97.1" text-anchor="end" dominant-baseline="middle" font-size="5.5" fill="#aaa">10ms</text>
<line x1="27.0" y1="68.9" x2="207.0" y2="68.9" stroke="#eee" stroke-width="0.5"/>
<text x="25.0" y="68.9" text-anchor="end" dominant-baseline="middle" font-size="5.5" fill="#aaa">100ms</text>
<line x1="27.0" y1="40.7" x2="207.0" y2="40.7" stroke="#eee" stroke-width="0.5"/>
<text x="25.0" y="40.7" text-anchor="end" dominant-baseline="middle" font-size="5.5" fill="#aaa">1s</text>
<rect x="27.0" y="37" width="180" height="180" fill="none" stroke="#ddd" stroke-width="0.5"/>
<path d="M35.2,193.2 L54.1,177.3 L98.1,139.6 L117.0,123.1 L135.9,105.5 L161.0,82.9 L179.9,65.9 L198.8,49.4" fill="none" stroke="#E03030" stroke-width="1.4" opacity="0.8"/>
<circle cx="35.2" cy="193.2" r="1.8" fill="#E03030"/>
<circle cx="54.1" cy="177.3" r="1.8" fill="#E03030"/>
<circle cx="98.1" cy="139.6" r="1.8" fill="#E03030"/>
<circle cx="117.0" cy="123.1" r="1.8" fill="#E03030"/>
<circle cx="135.9" cy="105.5" r="1.8" fill="#E03030"/>
<circle cx="161.0" cy="82.9" r="1.8" fill="#E03030"/>
<circle cx="179.9" cy="65.9" r="1.8" fill="#E03030"/>
<circle cx="198.8" cy="49.4" r="1.8" fill="#E03030"/>
<path d="M35.2,204.6 L54.1,192.3 L98.1,156.3 L117.0,139.0 L135.9,121.2 L161.0,98.8 L179.9,81.9 L198.8,64.5" fill="none" stroke="#E69F00" stroke-width="1.4" opacity="0.8"/>
<circle cx="35.2" cy="204.6" r="1.8" fill="#E69F00"/>
<circle cx="54.1" cy="192.3" r="1.8" fill="#E69F00"/>
<circle cx="98.1" cy="156.3" r="1.8" fill="#E69F00"/>
<circle cx="117.0" cy="139.0" r="1.8" fill="#E69F00"/>
<circle cx="135.9" cy="121.2" r="1.8" fill="#E69F00"/>
<circle cx="161.0" cy="98.8" r="1.8" fill="#E69F00"/>
<circle cx="179.9" cy="81.9" r="1.8" fill="#E69F00"/>
<circle cx="198.8" cy="64.5" r="1.8" fill="#E69F00"/>
<path d="M35.2,189.4 L54.1,181.3 L98.1,164.3 L117.0,156.2 L135.9,147.9 L161.0,137.1 L179.9,128.5 L198.8,120.3" fill="none" stroke="#2060D0" stroke-width="1.4" opacity="0.8"/>
<circle cx="35.2" cy="189.4" r="1.8" fill="#2060D0"/>
<circle cx="54.1" cy="181.3" r="1.8" fill="#2060D0"/>
<circle cx="98.1" cy="164.3" r="1.8" fill="#2060D0"/>
<circle cx="117.0" cy="156.2" r="1.8" fill="#2060D0"/>
<circle cx="135.9" cy="147.9" r="1.8" fill="#2060D0"/>
<circle cx="161.0" cy="137.1" r="1.8" fill="#2060D0"/>
<circle cx="179.9" cy="128.5" r="1.8" fill="#2060D0"/>
<circle cx="198.8" cy="120.3" r="1.8" fill="#2060D0"/>
<text x="329.0" y="33" text-anchor="middle" font-size="9" font-weight="bold" fill="#333">Grid (E ~ 2V)</text>
<line x1="249.6" y1="37" x2="249.6" y2="217" stroke="#eee" stroke-width="0.5"/>
<text x="249.6" y="226" text-anchor="middle" font-size="6.5" fill="#999">10</text>
<line x1="303.4" y1="37" x2="303.4" y2="217" stroke="#eee" stroke-width="0.5"/>
<text x="303.4" y="226" text-anchor="middle" font-size="6.5" fill="#999">100</text>
<line x1="357.1" y1="37" x2="357.1" y2="217" stroke="#eee" stroke-width="0.5"/>
<text x="357.1" y="226" text-anchor="middle" font-size="6.5" fill="#999">1,000</text>
<line x1="410.8" y1="37" x2="410.8" y2="217" stroke="#eee" stroke-width="0.5"/>
<text x="410.8" y="226" text-anchor="middle" font-size="6.5" fill="#999">10,000</text>
<line x1="239.0" y1="188.6" x2="419.0" y2="188.6" stroke="#eee" stroke-width="0.5"/>
<text x="237.0" y="188.6" text-anchor="end" dominant-baseline="middle" font-size="5.5" fill="#aaa">1µs</text>
<line x1="239.0" y1="159.6" x2="419.0" y2="159.6" stroke="#eee" stroke-width="0.5"/>
<text x="237.0" y="159.6" text-anchor="end" dominant-baseline="middle" font-size="5.5" fill="#aaa">10µs</text>
<line x1="239.0" y1="130.6" x2="419.0" y2="130.6" stroke="#eee" stroke-width="0.5"/>
<text x="237.0" y="130.6" text-anchor="end" dominant-baseline="middle" font-size="5.5" fill="#aaa">100µs</text>
<line x1="239.0" y1="101.6" x2="419.0" y2="101.6" stroke="#eee" stroke-width="0.5"/>
<text x="237.0" y="101.6" text-anchor="end" dominant-baseline="middle" font-size="5.5" fill="#aaa">1ms</text>
<line x1="239.0" y1="72.6" x2="419.0" y2="72.6" stroke="#eee" stroke-width="0.5"/>
<text x="237.0" y="72.6" text-anchor="end" dominant-baseline="middle" font-size="5.5" fill="#aaa">10ms</text>
<line x1="239.0" y1="43.6" x2="419.0" y2="43.6" stroke="#eee" stroke-width="0.5"/>
<text x="237.0" y="43.6" text-anchor="end" dominant-baseline="middle" font-size="5.5" fill="#aaa">100ms</text>
<rect x="239.0" y="37" width="180" height="180" fill="none" stroke="#ddd" stroke-width="0.5"/>
<path d="M247.2,198.2 L271.0,184.2 L286.7,176.0 L303.4,162.5 L322.3,143.2 L340.2,125.3 L357.6,106.4 L373.6,89.4 L382.9,77.5 L394.2,67.4 L410.8,49.4" fill="none" stroke="#E03030" stroke-width="1.4" opacity="0.8"/>
<circle cx="247.2" cy="198.2" r="1.8" fill="#E03030"/>
<circle cx="271.0" cy="184.2" r="1.8" fill="#E03030"/>
<circle cx="286.7" cy="176.0" r="1.8" fill="#E03030"/>
<circle cx="303.4" cy="162.5" r="1.8" fill="#E03030"/>
<circle cx="322.3" cy="143.2" r="1.8" fill="#E03030"/>
<circle cx="340.2" cy="125.3" r="1.8" fill="#E03030"/>
<circle cx="357.6" cy="106.4" r="1.8" fill="#E03030"/>
<circle cx="373.6" cy="89.4" r="1.8" fill="#E03030"/>
<circle cx="382.9" cy="77.5" r="1.8" fill="#E03030"/>
<circle cx="394.2" cy="67.4" r="1.8" fill="#E03030"/>
<circle cx="410.8" cy="49.4" r="1.8" fill="#E03030"/>
<path d="M247.2,204.6 L271.0,195.2 L286.7,185.6 L303.4,176.8 L322.3,158.4 L340.2,141.8 L357.6,122.8 L373.6,105.1 L382.9,95.0 L394.2,83.4 L410.8,64.9" fill="none" stroke="#E69F00" stroke-width="1.4" opacity="0.8"/>
<circle cx="247.2" cy="204.6" r="1.8" fill="#E69F00"/>
<circle cx="271.0" cy="195.2" r="1.8" fill="#E69F00"/>
<circle cx="286.7" cy="185.6" r="1.8" fill="#E69F00"/>
<circle cx="303.4" cy="176.8" r="1.8" fill="#E69F00"/>
<circle cx="322.3" cy="158.4" r="1.8" fill="#E69F00"/>
<circle cx="340.2" cy="141.8" r="1.8" fill="#E69F00"/>
<circle cx="357.6" cy="122.8" r="1.8" fill="#E69F00"/>
<circle cx="373.6" cy="105.1" r="1.8" fill="#E69F00"/>
<circle cx="382.9" cy="95.0" r="1.8" fill="#E69F00"/>
<circle cx="394.2" cy="83.4" r="1.8" fill="#E69F00"/>
<circle cx="410.8" cy="64.9" r="1.8" fill="#E69F00"/>
<path d="M247.2,180.7 L271.0,167.8 L286.7,158.7 L303.4,154.2 L322.3,140.9 L340.2,134.8 L357.6,125.3 L373.6,112.6 L382.9,107.4 L394.2,105.5 L410.8,96.5" fill="none" stroke="#2060D0" stroke-width="1.4" opacity="0.8"/>
<circle cx="247.2" cy="180.7" r="1.8" fill="#2060D0"/>
<circle cx="271.0" cy="167.8" r="1.8" fill="#2060D0"/>
<circle cx="286.7" cy="158.7" r="1.8" fill="#2060D0"/>
<circle cx="303.4" cy="154.2" r="1.8" fill="#2060D0"/>
<circle cx="322.3" cy="140.9" r="1.8" fill="#2060D0"/>
<circle cx="340.2" cy="134.8" r="1.8" fill="#2060D0"/>
<circle cx="357.6" cy="125.3" r="1.8" fill="#2060D0"/>
<circle cx="373.6" cy="112.6" r="1.8" fill="#2060D0"/>
<circle cx="382.9" cy="107.4" r="1.8" fill="#2060D0"/>
<circle cx="394.2" cy="105.5" r="1.8" fill="#2060D0"/>
<circle cx="410.8" cy="96.5" r="1.8" fill="#2060D0"/>
<text x="541.0" y="33" text-anchor="middle" font-size="9" font-weight="bold" fill="#333">Erdős-Rényi (d ~ 6)</text>
<line x1="459.2" y1="37" x2="459.2" y2="217" stroke="#eee" stroke-width="0.5"/>
<text x="459.2" y="226" text-anchor="middle" font-size="6.5" fill="#999">10</text>
<line x1="513.7" y1="37" x2="513.7" y2="217" stroke="#eee" stroke-width="0.5"/>
<text x="513.7" y="226" text-anchor="middle" font-size="6.5" fill="#999">100</text>
<line x1="568.3" y1="37" x2="568.3" y2="217" stroke="#eee" stroke-width="0.5"/>
<text x="568.3" y="226" text-anchor="middle" font-size="6.5" fill="#999">1,000</text>
<line x1="622.8" y1="37" x2="622.8" y2="217" stroke="#eee" stroke-width="0.5"/>
<text x="622.8" y="226" text-anchor="middle" font-size="6.5" fill="#999">10,000</text>
<line x1="451.0" y1="193.0" x2="631.0" y2="193.0" stroke="#eee" stroke-width="0.5"/>
<text x="449.0" y="193.0" text-anchor="end" dominant-baseline="middle" font-size="5.5" fill="#aaa">1µs</text>
<line x1="451.0" y1="164.8" x2="631.0" y2="164.8" stroke="#eee" stroke-width="0.5"/>
<text x="449.0" y="164.8" text-anchor="end" dominant-baseline="middle" font-size="5.5" fill="#aaa">10µs</text>
<line x1="451.0" y1="136.5" x2="631.0" y2="136.5" stroke="#eee" stroke-width="0.5"/>
<text x="449.0" y="136.5" text-anchor="end" dominant-baseline="middle" font-size="5.5" fill="#aaa">100µs</text>
<line x1="451.0" y1="108.3" x2="631.0" y2="108.3" stroke="#eee" stroke-width="0.5"/>
<text x="449.0" y="108.3" text-anchor="end" dominant-baseline="middle" font-size="5.5" fill="#aaa">1ms</text>
<line x1="451.0" y1="80.1" x2="631.0" y2="80.1" stroke="#eee" stroke-width="0.5"/>
<text x="449.0" y="80.1" text-anchor="end" dominant-baseline="middle" font-size="5.5" fill="#aaa">10ms</text>
<line x1="451.0" y1="51.8" x2="631.0" y2="51.8" stroke="#eee" stroke-width="0.5"/>
<text x="449.0" y="51.8" text-anchor="end" dominant-baseline="middle" font-size="5.5" fill="#aaa">100ms</text>
<rect x="451.0" y="37" width="180" height="180" fill="none" stroke="#ddd" stroke-width="0.5"/>
<path d="M459.2,199.7 L475.6,190.3 L497.3,179.5 L513.7,159.7 L530.1,143.8 L551.9,125.6 L568.3,110.6 L584.7,94.9 L594.3,80.2 L606.4,71.7 L616.0,61.0 L622.8,49.4" fill="none" stroke="#E03030" stroke-width="1.4" opacity="0.8"/>
<circle cx="459.2" cy="199.7" r="1.8" fill="#E03030"/>
<circle cx="475.6" cy="190.3" r="1.8" fill="#E03030"/>
<circle cx="497.3" cy="179.5" r="1.8" fill="#E03030"/>
<circle cx="513.7" cy="159.7" r="1.8" fill="#E03030"/>
<circle cx="530.1" cy="143.8" r="1.8" fill="#E03030"/>
<circle cx="551.9" cy="125.6" r="1.8" fill="#E03030"/>
<circle cx="568.3" cy="110.6" r="1.8" fill="#E03030"/>
<circle cx="584.7" cy="94.9" r="1.8" fill="#E03030"/>
<circle cx="594.3" cy="80.2" r="1.8" fill="#E03030"/>
<circle cx="606.4" cy="71.7" r="1.8" fill="#E03030"/>
<circle cx="616.0" cy="61.0" r="1.8" fill="#E03030"/>
<circle cx="622.8" cy="49.4" r="1.8" fill="#E03030"/>
<path d="M459.2,204.6 L475.6,196.6 L497.3,188.5 L513.7,166.7 L530.1,149.5 L551.9,131.3 L568.3,116.7 L584.7,107.2 L594.3,83.3 L606.4,80.4 L616.0,69.2 L622.8,50.9" fill="none" stroke="#E69F00" stroke-width="1.4" opacity="0.8"/>
<circle cx="459.2" cy="204.6" r="1.8" fill="#E69F00"/>
<circle cx="475.6" cy="196.6" r="1.8" fill="#E69F00"/>
<circle cx="497.3" cy="188.5" r="1.8" fill="#E69F00"/>
<circle cx="513.7" cy="166.7" r="1.8" fill="#E69F00"/>
<circle cx="530.1" cy="149.5" r="1.8" fill="#E69F00"/>
<circle cx="551.9" cy="131.3" r="1.8" fill="#E69F00"/>
<circle cx="568.3" cy="116.7" r="1.8" fill="#E69F00"/>
<circle cx="584.7" cy="107.2" r="1.8" fill="#E69F00"/>
<circle cx="594.3" cy="83.3" r="1.8" fill="#E69F00"/>
<circle cx="606.4" cy="80.4" r="1.8" fill="#E69F00"/>
<circle cx="616.0" cy="69.2" r="1.8" fill="#E69F00"/>
<circle cx="622.8" cy="50.9" r="1.8" fill="#E69F00"/>
<path d="M459.2,178.4 L475.6,169.2 L497.3,159.3 L513.7,148.4 L530.1,134.0 L551.9,125.0 L568.3,116.4 L584.7,106.9 L594.3,95.9 L606.4,93.9 L616.0,88.3 L622.8,79.2" fill="none" stroke="#2060D0" stroke-width="1.4" opacity="0.8"/>
<circle cx="459.2" cy="178.4" r="1.8" fill="#2060D0"/>
<circle cx="475.6" cy="169.2" r="1.8" fill="#2060D0"/>
<circle cx="497.3" cy="159.3" r="1.8" fill="#2060D0"/>
<circle cx="513.7" cy="148.4" r="1.8" fill="#2060D0"/>
<circle cx="530.1" cy="134.0" r="1.8" fill="#2060D0"/>
<circle cx="551.9" cy="125.0" r="1.8" fill="#2060D0"/>
<circle cx="568.3" cy="116.4" r="1.8" fill="#2060D0"/>
<circle cx="584.7" cy="106.9" r="1.8" fill="#2060D0"/>
<circle cx="594.3" cy="95.9" r="1.8" fill="#2060D0"/>
<circle cx="606.4" cy="93.9" r="1.8" fill="#2060D0"/>
<circle cx="616.0" cy="88.3" r="1.8" fill="#2060D0"/>
<circle cx="622.8" cy="79.2" r="1.8" fill="#2060D0"/>
<text x="753.0" y="33" text-anchor="middle" font-size="9" font-weight="bold" fill="#333">Complete</text>
<line x1="671.2" y1="37" x2="671.2" y2="217" stroke="#eee" stroke-width="0.5"/>
<text x="671.2" y="226" text-anchor="middle" font-size="6.5" fill="#999">10</text>
<line x1="767.5" y1="37" x2="767.5" y2="217" stroke="#eee" stroke-width="0.5"/>
<text x="767.5" y="226" text-anchor="middle" font-size="6.5" fill="#999">100</text>
<line x1="663.0" y1="190.8" x2="843.0" y2="190.8" stroke="#eee" stroke-width="0.5"/>
<text x="661.0" y="190.8" text-anchor="end" dominant-baseline="middle" font-size="5.5" fill="#aaa">1µs</text>
<line x1="663.0" y1="155.4" x2="843.0" y2="155.4" stroke="#eee" stroke-width="0.5"/>
<text x="661.0" y="155.4" text-anchor="end" dominant-baseline="middle" font-size="5.5" fill="#aaa">10µs</text>
<line x1="663.0" y1="119.9" x2="843.0" y2="119.9" stroke="#eee" stroke-width="0.5"/>
<text x="661.0" y="119.9" text-anchor="end" dominant-baseline="middle" font-size="5.5" fill="#aaa">100µs</text>
<line x1="663.0" y1="84.4" x2="843.0" y2="84.4" stroke="#eee" stroke-width="0.5"/>
<text x="661.0" y="84.4" text-anchor="end" dominant-baseline="middle" font-size="5.5" fill="#aaa">1ms</text>
<line x1="663.0" y1="48.9" x2="843.0" y2="48.9" stroke="#eee" stroke-width="0.5"/>
<text x="661.0" y="48.9" text-anchor="end" dominant-baseline="middle" font-size="5.5" fill="#aaa">10ms</text>
<rect x="663.0" y="37" width="180" height="180" fill="none" stroke="#ddd" stroke-width="0.5"/>
<path d="M671.2,196.4 L700.2,179.2 L738.5,145.3 L767.5,118.3 L796.5,89.3 L813.5,71.8 L825.5,59.5 L834.8,49.4" fill="none" stroke="#E03030" stroke-width="1.4" opacity="0.8"/>
<circle cx="671.2" cy="196.4" r="1.8" fill="#E03030"/>
<circle cx="700.2" cy="179.2" r="1.8" fill="#E03030"/>
<circle cx="738.5" cy="145.3" r="1.8" fill="#E03030"/>
<circle cx="767.5" cy="118.3" r="1.8" fill="#E03030"/>
<circle cx="796.5" cy="89.3" r="1.8" fill="#E03030"/>
<circle cx="813.5" cy="71.8" r="1.8" fill="#E03030"/>
<circle cx="825.5" cy="59.5" r="1.8" fill="#E03030"/>
<circle cx="834.8" cy="49.4" r="1.8" fill="#E03030"/>
<path d="M671.2,204.6 L700.2,186.3 L738.5,146.9 L767.5,119.7 L796.5,90.4 L813.5,72.8 L825.5,59.8 L834.8,49.9" fill="none" stroke="#E69F00" stroke-width="1.4" opacity="0.8"/>
<circle cx="671.2" cy="204.6" r="1.8" fill="#E69F00"/>
<circle cx="700.2" cy="186.3" r="1.8" fill="#E69F00"/>
<circle cx="738.5" cy="146.9" r="1.8" fill="#E69F00"/>
<circle cx="767.5" cy="119.7" r="1.8" fill="#E69F00"/>
<circle cx="796.5" cy="90.4" r="1.8" fill="#E69F00"/>
<circle cx="813.5" cy="72.8" r="1.8" fill="#E69F00"/>
<circle cx="825.5" cy="59.8" r="1.8" fill="#E69F00"/>
<circle cx="834.8" cy="49.9" r="1.8" fill="#E69F00"/>
<path d="M671.2,172.6 L700.2,158.0 L738.5,135.0 L767.5,115.7 L796.5,94.7 L813.5,83.6 L825.5,76.0 L834.8,69.9" fill="none" stroke="#2060D0" stroke-width="1.4" opacity="0.8"/>
<circle cx="671.2" cy="172.6" r="1.8" fill="#2060D0"/>
<circle cx="700.2" cy="158.0" r="1.8" fill="#2060D0"/>
<circle cx="738.5" cy="135.0" r="1.8" fill="#2060D0"/>
<circle cx="767.5" cy="115.7" r="1.8" fill="#2060D0"/>
<circle cx="796.5" cy="94.7" r="1.8" fill="#2060D0"/>
<circle cx="813.5" cy="83.6" r="1.8" fill="#2060D0"/>
<circle cx="825.5" cy="76.0" r="1.8" fill="#2060D0"/>
<circle cx="834.8" cy="69.9" r="1.8" fill="#2060D0"/>
<text x="117.0" y="267" text-anchor="middle" font-size="9" font-weight="bold" fill="#333">Barabási-Albert (m=2)</text>
<line x1="59.8" y1="271" x2="59.8" y2="451" stroke="#eee" stroke-width="0.5"/>
<text x="59.8" y="460" text-anchor="middle" font-size="6.5" fill="#999">100</text>
<line x1="141.6" y1="271" x2="141.6" y2="451" stroke="#eee" stroke-width="0.5"/>
<text x="141.6" y="460" text-anchor="middle" font-size="6.5" fill="#999">1,000</text>
<line x1="27.0" y1="413.4" x2="207.0" y2="413.4" stroke="#eee" stroke-width="0.5"/>
<text x="25.0" y="413.4" text-anchor="end" dominant-baseline="middle" font-size="5.5" fill="#aaa">10µs</text>
<line x1="27.0" y1="374.4" x2="207.0" y2="374.4" stroke="#eee" stroke-width="0.5"/>
<text x="25.0" y="374.4" text-anchor="end" dominant-baseline="middle" font-size="5.5" fill="#aaa">100µs</text>
<line x1="27.0" y1="335.5" x2="207.0" y2="335.5" stroke="#eee" stroke-width="0.5"/>
<text x="25.0" y="335.5" text-anchor="end" dominant-baseline="middle" font-size="5.5" fill="#aaa">1ms</text>
<line x1="27.0" y1="296.5" x2="207.0" y2="296.5" stroke="#eee" stroke-width="0.5"/>
<text x="25.0" y="296.5" text-anchor="end" dominant-baseline="middle" font-size="5.5" fill="#aaa">10ms</text>
<rect x="27.0" y="271" width="180" height="180" fill="none" stroke="#ddd" stroke-width="0.5"/>
<path d="M35.2,427.1 L59.8,409.6 L84.4,388.9 L117.0,358.9 L141.6,336.6 L166.3,313.9 L198.8,283.4" fill="none" stroke="#E03030" stroke-width="1.4" opacity="0.8"/>
<circle cx="35.2" cy="427.1" r="1.8" fill="#E03030"/>
<circle cx="59.8" cy="409.6" r="1.8" fill="#E03030"/>
<circle cx="84.4" cy="388.9" r="1.8" fill="#E03030"/>
<circle cx="117.0" cy="358.9" r="1.8" fill="#E03030"/>
<circle cx="141.6" cy="336.6" r="1.8" fill="#E03030"/>
<circle cx="166.3" cy="313.9" r="1.8" fill="#E03030"/>
<circle cx="198.8" cy="283.4" r="1.8" fill="#E03030"/>
<path d="M35.2,438.6 L59.8,424.4 L84.4,406.4 L117.0,380.9 L141.6,358.1 L166.3,335.2 L198.8,306.3" fill="none" stroke="#E69F00" stroke-width="1.4" opacity="0.8"/>
<circle cx="35.2" cy="438.6" r="1.8" fill="#E69F00"/>
<circle cx="59.8" cy="424.4" r="1.8" fill="#E69F00"/>
<circle cx="84.4" cy="406.4" r="1.8" fill="#E69F00"/>
<circle cx="117.0" cy="380.9" r="1.8" fill="#E69F00"/>
<circle cx="141.6" cy="358.1" r="1.8" fill="#E69F00"/>
<circle cx="166.3" cy="335.2" r="1.8" fill="#E69F00"/>
<circle cx="198.8" cy="306.3" r="1.8" fill="#E69F00"/>
<path d="M35.2,410.6 L59.8,395.4 L84.4,382.3 L117.0,364.5 L141.6,349.1 L166.3,334.8 L198.8,316.0" fill="none" stroke="#2060D0" stroke-width="1.4" opacity="0.8"/>
<circle cx="35.2" cy="410.6" r="1.8" fill="#2060D0"/>
<circle cx="59.8" cy="395.4" r="1.8" fill="#2060D0"/>
<circle cx="84.4" cy="382.3" r="1.8" fill="#2060D0"/>
<circle cx="117.0" cy="364.5" r="1.8" fill="#2060D0"/>
<circle cx="141.6" cy="349.1" r="1.8" fill="#2060D0"/>
<circle cx="166.3" cy="334.8" r="1.8" fill="#2060D0"/>
<circle cx="198.8" cy="316.0" r="1.8" fill="#2060D0"/>
<text x="329.0" y="267" text-anchor="middle" font-size="9" font-weight="bold" fill="#333">Hexagonal Lattice</text>
<line x1="258.4" y1="271" x2="258.4" y2="451" stroke="#eee" stroke-width="0.5"/>
<text x="258.4" y="460" text-anchor="middle" font-size="6.5" fill="#999">10</text>
<line x1="309.2" y1="271" x2="309.2" y2="451" stroke="#eee" stroke-width="0.5"/>
<text x="309.2" y="460" text-anchor="middle" font-size="6.5" fill="#999">100</text>
<line x1="359.9" y1="271" x2="359.9" y2="451" stroke="#eee" stroke-width="0.5"/>
<text x="359.9" y="460" text-anchor="middle" font-size="6.5" fill="#999">1,000</text>
<line x1="410.6" y1="271" x2="410.6" y2="451" stroke="#eee" stroke-width="0.5"/>
<text x="410.6" y="460" text-anchor="middle" font-size="6.5" fill="#999">10,000</text>
<line x1="239.0" y1="445.1" x2="419.0" y2="445.1" stroke="#eee" stroke-width="0.5"/>
<text x="237.0" y="445.1" text-anchor="end" dominant-baseline="middle" font-size="5.5" fill="#aaa">0.1µs</text>
<line x1="239.0" y1="417.3" x2="419.0" y2="417.3" stroke="#eee" stroke-width="0.5"/>
<text x="237.0" y="417.3" text-anchor="end" dominant-baseline="middle" font-size="5.5" fill="#aaa">1µs</text>
<line x1="239.0" y1="389.5" x2="419.0" y2="389.5" stroke="#eee" stroke-width="0.5"/>
<text x="237.0" y="389.5" text-anchor="end" dominant-baseline="middle" font-size="5.5" fill="#aaa">10µs</text>
<line x1="239.0" y1="361.7" x2="419.0" y2="361.7" stroke="#eee" stroke-width="0.5"/>
<text x="237.0" y="361.7" text-anchor="end" dominant-baseline="middle" font-size="5.5" fill="#aaa">100µs</text>
<line x1="239.0" y1="333.9" x2="419.0" y2="333.9" stroke="#eee" stroke-width="0.5"/>
<text x="237.0" y="333.9" text-anchor="end" dominant-baseline="middle" font-size="5.5" fill="#aaa">1ms</text>
<line x1="239.0" y1="306.1" x2="419.0" y2="306.1" stroke="#eee" stroke-width="0.5"/>
<text x="237.0" y="306.1" text-anchor="end" dominant-baseline="middle" font-size="5.5" fill="#aaa">10ms</text>
<line x1="239.0" y1="278.3" x2="419.0" y2="278.3" stroke="#eee" stroke-width="0.5"/>
<text x="237.0" y="278.3" text-anchor="end" dominant-baseline="middle" font-size="5.5" fill="#aaa">100ms</text>
<rect x="239.0" y="271" width="180" height="180" fill="none" stroke="#ddd" stroke-width="0.5"/>
<path d="M247.2,434.1 L268.8,424.6 L282.6,415.5 L308.3,393.3 L328.5,372.9 L345.1,355.4 L360.1,338.8 L375.0,322.5 L385.0,312.0 L396.2,299.4 L410.8,283.4" fill="none" stroke="#E03030" stroke-width="1.4" opacity="0.8"/>
<circle cx="247.2" cy="434.1" r="1.8" fill="#E03030"/>
<circle cx="268.8" cy="424.6" r="1.8" fill="#E03030"/>
<circle cx="282.6" cy="415.5" r="1.8" fill="#E03030"/>
<circle cx="308.3" cy="393.3" r="1.8" fill="#E03030"/>
<circle cx="328.5" cy="372.9" r="1.8" fill="#E03030"/>
<circle cx="345.1" cy="355.4" r="1.8" fill="#E03030"/>
<circle cx="360.1" cy="338.8" r="1.8" fill="#E03030"/>
<circle cx="375.0" cy="322.5" r="1.8" fill="#E03030"/>
<circle cx="385.0" cy="312.0" r="1.8" fill="#E03030"/>
<circle cx="396.2" cy="299.4" r="1.8" fill="#E03030"/>
<circle cx="410.8" cy="283.4" r="1.8" fill="#E03030"/>
<path d="M247.2,438.6 L268.8,431.4 L282.6,424.0 L308.3,406.2 L328.5,388.3 L345.1,371.4 L360.1,354.5 L375.0,337.6 L385.0,326.7 L396.2,314.5 L410.8,298.6" fill="none" stroke="#E69F00" stroke-width="1.4" opacity="0.8"/>
<circle cx="247.2" cy="438.6" r="1.8" fill="#E69F00"/>
<circle cx="268.8" cy="431.4" r="1.8" fill="#E69F00"/>
<circle cx="282.6" cy="424.0" r="1.8" fill="#E69F00"/>
<circle cx="308.3" cy="406.2" r="1.8" fill="#E69F00"/>
<circle cx="328.5" cy="388.3" r="1.8" fill="#E69F00"/>
<circle cx="345.1" cy="371.4" r="1.8" fill="#E69F00"/>
<circle cx="360.1" cy="354.5" r="1.8" fill="#E69F00"/>
<circle cx="375.0" cy="337.6" r="1.8" fill="#E69F00"/>
<circle cx="385.0" cy="326.7" r="1.8" fill="#E69F00"/>
<circle cx="396.2" cy="314.5" r="1.8" fill="#E69F00"/>
<circle cx="410.8" cy="298.6" r="1.8" fill="#E69F00"/>
<path d="M247.2,415.8 L268.8,406.0 L282.6,399.3 L308.3,385.1 L328.5,375.1 L345.1,365.6 L360.1,357.2 L375.0,349.1 L385.0,343.3 L396.2,337.4 L410.8,329.4" fill="none" stroke="#2060D0" stroke-width="1.4" opacity="0.8"/>
<circle cx="247.2" cy="415.8" r="1.8" fill="#2060D0"/>
<circle cx="268.8" cy="406.0" r="1.8" fill="#2060D0"/>
<circle cx="282.6" cy="399.3" r="1.8" fill="#2060D0"/>
<circle cx="308.3" cy="385.1" r="1.8" fill="#2060D0"/>
<circle cx="328.5" cy="375.1" r="1.8" fill="#2060D0"/>
<circle cx="345.1" cy="365.6" r="1.8" fill="#2060D0"/>
<circle cx="360.1" cy="357.2" r="1.8" fill="#2060D0"/>
<circle cx="375.0" cy="349.1" r="1.8" fill="#2060D0"/>
<circle cx="385.0" cy="343.3" r="1.8" fill="#2060D0"/>
<circle cx="396.2" cy="337.4" r="1.8" fill="#2060D0"/>
<circle cx="410.8" cy="329.4" r="1.8" fill="#2060D0"/>
<text x="541.0" y="267" text-anchor="middle" font-size="9" font-weight="bold" fill="#333">Windmill K4</text>
<line x1="459.2" y1="271" x2="459.2" y2="451" stroke="#eee" stroke-width="0.5"/>
<text x="459.2" y="460" text-anchor="middle" font-size="6.5" fill="#999">10</text>
<line x1="513.7" y1="271" x2="513.7" y2="451" stroke="#eee" stroke-width="0.5"/>
<text x="513.7" y="460" text-anchor="middle" font-size="6.5" fill="#999">100</text>
<line x1="568.3" y1="271" x2="568.3" y2="451" stroke="#eee" stroke-width="0.5"/>
<text x="568.3" y="460" text-anchor="middle" font-size="6.5" fill="#999">1,000</text>
<line x1="622.8" y1="271" x2="622.8" y2="451" stroke="#eee" stroke-width="0.5"/>
<text x="622.8" y="460" text-anchor="middle" font-size="6.5" fill="#999">10,000</text>
<line x1="451.0" y1="428.0" x2="631.0" y2="428.0" stroke="#eee" stroke-width="0.5"/>
<text x="449.0" y="428.0" text-anchor="end" dominant-baseline="middle" font-size="5.5" fill="#aaa">1µs</text>
<line x1="451.0" y1="399.6" x2="631.0" y2="399.6" stroke="#eee" stroke-width="0.5"/>
<text x="449.0" y="399.6" text-anchor="end" dominant-baseline="middle" font-size="5.5" fill="#aaa">10µs</text>
<line x1="451.0" y1="371.3" x2="631.0" y2="371.3" stroke="#eee" stroke-width="0.5"/>
<text x="449.0" y="371.3" text-anchor="end" dominant-baseline="middle" font-size="5.5" fill="#aaa">100µs</text>
<line x1="451.0" y1="342.9" x2="631.0" y2="342.9" stroke="#eee" stroke-width="0.5"/>
<text x="449.0" y="342.9" text-anchor="end" dominant-baseline="middle" font-size="5.5" fill="#aaa">1ms</text>
<line x1="451.0" y1="314.6" x2="631.0" y2="314.6" stroke="#eee" stroke-width="0.5"/>
<text x="449.0" y="314.6" text-anchor="end" dominant-baseline="middle" font-size="5.5" fill="#aaa">10ms</text>
<line x1="451.0" y1="286.2" x2="631.0" y2="286.2" stroke="#eee" stroke-width="0.5"/>
<text x="449.0" y="286.2" text-anchor="end" dominant-baseline="middle" font-size="5.5" fill="#aaa">100ms</text>
<rect x="451.0" y="271" width="180" height="180" fill="none" stroke="#ddd" stroke-width="0.5"/>
<path d="M459.2,433.4 L474.4,424.8 L496.8,408.4 L513.7,393.7 L530.0,378.5 L551.8,357.1 L568.3,339.8 L584.7,322.8 L594.3,313.1 L606.4,300.6 L616.0,290.6 L622.8,283.4" fill="none" stroke="#E03030" stroke-width="1.4" opacity="0.8"/>
<circle cx="459.2" cy="433.4" r="1.8" fill="#E03030"/>
<circle cx="474.4" cy="424.8" r="1.8" fill="#E03030"/>
<circle cx="496.8" cy="408.4" r="1.8" fill="#E03030"/>
<circle cx="513.7" cy="393.7" r="1.8" fill="#E03030"/>
<circle cx="530.0" cy="378.5" r="1.8" fill="#E03030"/>
<circle cx="551.8" cy="357.1" r="1.8" fill="#E03030"/>
<circle cx="568.3" cy="339.8" r="1.8" fill="#E03030"/>
<circle cx="584.7" cy="322.8" r="1.8" fill="#E03030"/>
<circle cx="594.3" cy="313.1" r="1.8" fill="#E03030"/>
<circle cx="606.4" cy="300.6" r="1.8" fill="#E03030"/>
<circle cx="616.0" cy="290.6" r="1.8" fill="#E03030"/>
<circle cx="622.8" cy="283.4" r="1.8" fill="#E03030"/>
<path d="M459.2,438.6 L474.4,430.4 L496.8,413.7 L513.7,401.5 L530.0,387.1 L551.8,366.1 L568.3,349.7 L584.7,332.5 L594.3,322.6 L606.4,310.4 L616.0,300.4 L622.8,293.3" fill="none" stroke="#E69F00" stroke-width="1.4" opacity="0.8"/>
<circle cx="459.2" cy="438.6" r="1.8" fill="#E69F00"/>
<circle cx="474.4" cy="430.4" r="1.8" fill="#E69F00"/>
<circle cx="496.8" cy="413.7" r="1.8" fill="#E69F00"/>
<circle cx="513.7" cy="401.5" r="1.8" fill="#E69F00"/>
<circle cx="530.0" cy="387.1" r="1.8" fill="#E69F00"/>
<circle cx="551.8" cy="366.1" r="1.8" fill="#E69F00"/>
<circle cx="568.3" cy="349.7" r="1.8" fill="#E69F00"/>
<circle cx="584.7" cy="332.5" r="1.8" fill="#E69F00"/>
<circle cx="594.3" cy="322.6" r="1.8" fill="#E69F00"/>
<circle cx="606.4" cy="310.4" r="1.8" fill="#E69F00"/>
<circle cx="616.0" cy="300.4" r="1.8" fill="#E69F00"/>
<circle cx="622.8" cy="293.3" r="1.8" fill="#E69F00"/>
<path d="M459.2,415.7 L474.4,406.7 L496.8,396.7 L513.7,388.0 L530.0,379.9 L551.8,369.1 L568.3,360.6 L584.7,352.3 L594.3,347.2 L606.4,341.2 L616.0,336.2 L622.8,332.9" fill="none" stroke="#2060D0" stroke-width="1.4" opacity="0.8"/>
<circle cx="459.2" cy="415.7" r="1.8" fill="#2060D0"/>
<circle cx="474.4" cy="406.7" r="1.8" fill="#2060D0"/>
<circle cx="496.8" cy="396.7" r="1.8" fill="#2060D0"/>
<circle cx="513.7" cy="388.0" r="1.8" fill="#2060D0"/>
<circle cx="530.0" cy="379.9" r="1.8" fill="#2060D0"/>
<circle cx="551.8" cy="369.1" r="1.8" fill="#2060D0"/>
<circle cx="568.3" cy="360.6" r="1.8" fill="#2060D0"/>
<circle cx="584.7" cy="352.3" r="1.8" fill="#2060D0"/>
<circle cx="594.3" cy="347.2" r="1.8" fill="#2060D0"/>
<circle cx="606.4" cy="341.2" r="1.8" fill="#2060D0"/>
<circle cx="616.0" cy="336.2" r="1.8" fill="#2060D0"/>
<circle cx="622.8" cy="332.9" r="1.8" fill="#2060D0"/>
<text x="753.0" y="267" text-anchor="middle" font-size="9" font-weight="bold" fill="#333">Triangular Lattice</text>
<line x1="673.6" y1="271" x2="673.6" y2="451" stroke="#eee" stroke-width="0.5"/>
<text x="673.6" y="460" text-anchor="middle" font-size="6.5" fill="#999">10</text>
<line x1="727.4" y1="271" x2="727.4" y2="451" stroke="#eee" stroke-width="0.5"/>
<text x="727.4" y="460" text-anchor="middle" font-size="6.5" fill="#999">100</text>
<line x1="781.1" y1="271" x2="781.1" y2="451" stroke="#eee" stroke-width="0.5"/>
<text x="781.1" y="460" text-anchor="middle" font-size="6.5" fill="#999">1,000</text>
<line x1="834.8" y1="271" x2="834.8" y2="451" stroke="#eee" stroke-width="0.5"/>
<text x="834.8" y="460" text-anchor="middle" font-size="6.5" fill="#999">10,000</text>
<line x1="663.0" y1="425.6" x2="843.0" y2="425.6" stroke="#eee" stroke-width="0.5"/>
<text x="661.0" y="425.6" text-anchor="end" dominant-baseline="middle" font-size="5.5" fill="#aaa">1µs</text>
<line x1="663.0" y1="396.0" x2="843.0" y2="396.0" stroke="#eee" stroke-width="0.5"/>
<text x="661.0" y="396.0" text-anchor="end" dominant-baseline="middle" font-size="5.5" fill="#aaa">10µs</text>
<line x1="663.0" y1="366.5" x2="843.0" y2="366.5" stroke="#eee" stroke-width="0.5"/>
<text x="661.0" y="366.5" text-anchor="end" dominant-baseline="middle" font-size="5.5" fill="#aaa">100µs</text>
<line x1="663.0" y1="337.0" x2="843.0" y2="337.0" stroke="#eee" stroke-width="0.5"/>
<text x="661.0" y="337.0" text-anchor="end" dominant-baseline="middle" font-size="5.5" fill="#aaa">1ms</text>
<line x1="663.0" y1="307.5" x2="843.0" y2="307.5" stroke="#eee" stroke-width="0.5"/>
<text x="661.0" y="307.5" text-anchor="end" dominant-baseline="middle" font-size="5.5" fill="#aaa">10ms</text>
<line x1="663.0" y1="278.0" x2="843.0" y2="278.0" stroke="#eee" stroke-width="0.5"/>
<text x="661.0" y="278.0" text-anchor="end" dominant-baseline="middle" font-size="5.5" fill="#aaa">100ms</text>
<rect x="663.0" y="271" width="180" height="180" fill="none" stroke="#ddd" stroke-width="0.5"/>
<path d="M671.2,432.4 L695.0,420.3 L710.7,408.2 L727.4,398.8 L746.3,374.5 L764.2,359.6 L781.6,341.9 L797.6,319.7 L806.9,309.7 L818.2,302.2 L834.8,283.4" fill="none" stroke="#E03030" stroke-width="1.4" opacity="0.8"/>
<circle cx="671.2" cy="432.4" r="1.8" fill="#E03030"/>
<circle cx="695.0" cy="420.3" r="1.8" fill="#E03030"/>
<circle cx="710.7" cy="408.2" r="1.8" fill="#E03030"/>
<circle cx="727.4" cy="398.8" r="1.8" fill="#E03030"/>
<circle cx="746.3" cy="374.5" r="1.8" fill="#E03030"/>
<circle cx="764.2" cy="359.6" r="1.8" fill="#E03030"/>
<circle cx="781.6" cy="341.9" r="1.8" fill="#E03030"/>
<circle cx="797.6" cy="319.7" r="1.8" fill="#E03030"/>
<circle cx="806.9" cy="309.7" r="1.8" fill="#E03030"/>
<circle cx="818.2" cy="302.2" r="1.8" fill="#E03030"/>
<circle cx="834.8" cy="283.4" r="1.8" fill="#E03030"/>
<path d="M671.2,438.6 L695.0,426.0 L710.7,413.8 L727.4,411.1 L746.3,381.5 L764.2,377.8 L781.6,358.5 L797.6,327.7 L806.9,316.8 L818.2,318.5 L834.8,299.6" fill="none" stroke="#E69F00" stroke-width="1.4" opacity="0.8"/>
<circle cx="671.2" cy="438.6" r="1.8" fill="#E69F00"/>
<circle cx="695.0" cy="426.0" r="1.8" fill="#E69F00"/>
<circle cx="710.7" cy="413.8" r="1.8" fill="#E69F00"/>
<circle cx="727.4" cy="411.1" r="1.8" fill="#E69F00"/>
<circle cx="746.3" cy="381.5" r="1.8" fill="#E69F00"/>
<circle cx="764.2" cy="377.8" r="1.8" fill="#E69F00"/>
<circle cx="781.6" cy="358.5" r="1.8" fill="#E69F00"/>
<circle cx="797.6" cy="327.7" r="1.8" fill="#E69F00"/>
<circle cx="806.9" cy="316.8" r="1.8" fill="#E69F00"/>
<circle cx="818.2" cy="318.5" r="1.8" fill="#E69F00"/>
<circle cx="834.8" cy="299.6" r="1.8" fill="#E69F00"/>
<path d="M671.2,412.1 L695.0,398.1 L710.7,387.9 L727.4,387.9 L746.3,367.6 L764.2,368.5 L781.6,358.5 L797.6,339.5 L806.9,334.4 L818.2,338.6 L834.8,329.0" fill="none" stroke="#2060D0" stroke-width="1.4" opacity="0.8"/>
<circle cx="671.2" cy="412.1" r="1.8" fill="#2060D0"/>
<circle cx="695.0" cy="398.1" r="1.8" fill="#2060D0"/>
<circle cx="710.7" cy="387.9" r="1.8" fill="#2060D0"/>
<circle cx="727.4" cy="387.9" r="1.8" fill="#2060D0"/>
<circle cx="746.3" cy="367.6" r="1.8" fill="#2060D0"/>
<circle cx="764.2" cy="368.5" r="1.8" fill="#2060D0"/>
<circle cx="781.6" cy="358.5" r="1.8" fill="#2060D0"/>
<circle cx="797.6" cy="339.5" r="1.8" fill="#2060D0"/>
<circle cx="806.9" cy="334.4" r="1.8" fill="#2060D0"/>
<circle cx="818.2" cy="338.6" r="1.8" fill="#2060D0"/>
<circle cx="834.8" cy="329.0" r="1.8" fill="#2060D0"/>
<text x="10" y="244" text-anchor="middle" font-size="10" fill="#888" transform="rotate(-90, 10, 244)">Median Time (log scale)</text>
<text x="435" y="474" text-anchor="middle" font-size="10" fill="#888">Vertices (log scale)</text>
<rect x="255" y="492" width="10" height="10" fill="rgba(224,48,48,0.8)" stroke="#E03030" stroke-width="1" rx="2"/>
<text x="269" y="501" font-size="9" fill="#555">Blossom 1965</text>
<rect x="358" y="492" width="10" height="10" fill="rgba(230,159,0,0.8)" stroke="#E69F00" stroke-width="1" rx="2"/>
<text x="372" y="501" font-size="9" fill="#555">Gabow 1976</text>
<rect x="455" y="492" width="10" height="10" fill="rgba(32,96,208,0.8)" stroke="#2060D0" stroke-width="1" rx="2"/>
<text x="469" y="501" font-size="9" fill="#555">Micali-Vazirani 1980</text>
<text x="862" y="508" text-anchor="end" font-size="7" fill="#bbb">github.com/LucaCappelletti94/maximal-matching-benchmark</text>
</svg>
