<?xml version="1.0" encoding="UTF-8"?>
<svg xmlns="http://www.w3.org/2000/svg" viewBox="0 0 870 496" width="870" height="496" font-family="system-ui, -apple-system, sans-serif">
<rect width="870" height="496" fill="#fafafa" rx="8"/>
<text x="435.0" y="15" text-anchor="middle" font-size="13" font-weight="bold" fill="#1a1a2e">Time vs Vertices (log-log): Scaling Behavior by Topology</text>
<text x="117" y="33" text-anchor="middle" font-size="9" font-weight="bold" fill="#333">Star (E = V-1)</text>
<line x1="55.6" y1="37" x2="55.6" y2="217" stroke="#eee" stroke-width="0.5"/>
<text x="55.6" y="226" text-anchor="middle" font-size="6.5" fill="#999">100</text>
<line x1="118.3" y1="37" x2="118.3" y2="217" stroke="#eee" stroke-width="0.5"/>
<text x="118.3" y="226" text-anchor="middle" font-size="6.5" fill="#999">1,000</text>
<line x1="181.0" y1="37" x2="181.0" y2="217" stroke="#eee" stroke-width="0.5"/>
<text x="181.0" y="226" text-anchor="middle" font-size="6.5" fill="#999">10,000</text>
<line x1="27.0" y1="211.8" x2="207.0" y2="211.8" stroke="#eee" stroke-width="0.5"/>
<text x="25.0" y="211.8" text-anchor="end" dominant-baseline="middle" font-size="5.5" fill="#aaa">1µs</text>
<line x1="27.0" y1="187.4" x2="207.0" y2="187.4" stroke="#eee" stroke-width="0.5"/>
<text x="25.0" y="187.4" text-anchor="end" dominant-baseline="middle" font-size="5.5" fill="#aaa">10µs</text>
<line x1="27.0" y1="162.9" x2="207.0" y2="162.9" stroke="#eee" stroke-width="0.5"/>
<text x="25.0" y="162.9" text-anchor="end" dominant-baseline="middle" font-size="5.5" fill="#aaa">100µs</text>
<line x1="27.0" y1="138.5" x2="207.0" y2="138.5" stroke="#eee" stroke-width="0.5"/>
<text x="25.0" y="138.5" text-anchor="end" dominant-baseline="middle" font-size="5.5" fill="#aaa">1ms</text>
<line x1="27.0" y1="114.1" x2="207.0" y2="114.1" stroke="#eee" stroke-width="0.5"/>
<text x="25.0" y="114.1" text-anchor="end" dominant-baseline="middle" font-size="5.5" fill="#aaa">10ms</text>
<line x1="27.0" y1="89.6" x2="207.0" y2="89.6" stroke="#eee" stroke-width="0.5"/>
<text x="25.0" y="89.6" text-anchor="end" dominant-baseline="middle" font-size="5.5" fill="#aaa">100ms</text>
<line x1="27.0" y1="65.2" x2="207.0" y2="65.2" stroke="#eee" stroke-width="0.5"/>
<text x="25.0" y="65.2" text-anchor="end" dominant-baseline="middle" font-size="5.5" fill="#aaa">1s</text>
<rect x="27.0" y="37" width="180" height="180" fill="none" stroke="#ddd" stroke-width="0.5"/>
<path d="M36.7,197.4 L55.6,183.7 L99.4,150.9 L118.3,136.7 L137.2,121.4 L162.1,101.8 L181.0,87.0 L199.9,72.8" fill="none" stroke="#E03030" stroke-width="1.4" opacity="0.8"/>
<circle cx="36.7" cy="197.4" r="1.8" fill="#E03030"/>
<circle cx="55.6" cy="183.7" r="1.8" fill="#E03030"/>
<circle cx="99.4" cy="150.9" r="1.8" fill="#E03030"/>
<circle cx="118.3" cy="136.7" r="1.8" fill="#E03030"/>
<circle cx="137.2" cy="121.4" r="1.8" fill="#E03030"/>
<circle cx="162.1" cy="101.8" r="1.8" fill="#E03030"/>
<circle cx="181.0" cy="87.0" r="1.8" fill="#E03030"/>
<circle cx="199.9" cy="72.8" r="1.8" fill="#E03030"/>
<path d="M36.7,207.3 L55.6,196.6 L99.4,165.4 L118.3,150.4 L137.2,135.0 L162.1,115.6 L181.0,100.9 L199.9,85.9" fill="none" stroke="#E69F00" stroke-width="1.4" opacity="0.8"/>
<circle cx="36.7" cy="207.3" r="1.8" fill="#E69F00"/>
<circle cx="55.6" cy="196.6" r="1.8" fill="#E69F00"/>
<circle cx="99.4" cy="165.4" r="1.8" fill="#E69F00"/>
<circle cx="118.3" cy="150.4" r="1.8" fill="#E69F00"/>
<circle cx="137.2" cy="135.0" r="1.8" fill="#E69F00"/>
<circle cx="162.1" cy="115.6" r="1.8" fill="#E69F00"/>
<circle cx="181.0" cy="100.9" r="1.8" fill="#E69F00"/>
<circle cx="199.9" cy="85.9" r="1.8" fill="#E69F00"/>
<path d="M36.7,194.1 L55.6,187.0 L99.4,172.4 L118.3,165.3 L137.2,158.1 L162.1,148.8 L181.0,141.3 L199.9,134.2" fill="none" stroke="#2060D0" stroke-width="1.4" opacity="0.8"/>
<circle cx="36.7" cy="194.1" r="1.8" fill="#2060D0"/>
<circle cx="55.6" cy="187.0" r="1.8" fill="#2060D0"/>
<circle cx="99.4" cy="172.4" r="1.8" fill="#2060D0"/>
<circle cx="118.3" cy="165.3" r="1.8" fill="#2060D0"/>
<circle cx="137.2" cy="158.1" r="1.8" fill="#2060D0"/>
<circle cx="162.1" cy="148.8" r="1.8" fill="#2060D0"/>
<circle cx="181.0" cy="141.3" r="1.8" fill="#2060D0"/>
<circle cx="199.9" cy="134.2" r="1.8" fill="#2060D0"/>
<text x="329" y="33" text-anchor="middle" font-size="9" font-weight="bold" fill="#333">Grid (E ~ 2V)</text>
<line x1="249.9" y1="37" x2="249.9" y2="217" stroke="#eee" stroke-width="0.5"/>
<text x="249.9" y="226" text-anchor="middle" font-size="6.5" fill="#999">10</text>
<line x1="304.2" y1="37" x2="304.2" y2="217" stroke="#eee" stroke-width="0.5"/>
<text x="304.2" y="226" text-anchor="middle" font-size="6.5" fill="#999">100</text>
<line x1="358.5" y1="37" x2="358.5" y2="217" stroke="#eee" stroke-width="0.5"/>
<text x="358.5" y="226" text-anchor="middle" font-size="6.5" fill="#999">1,000</text>
<line x1="412.8" y1="37" x2="412.8" y2="217" stroke="#eee" stroke-width="0.5"/>
<text x="412.8" y="226" text-anchor="middle" font-size="6.5" fill="#999">10,000</text>
<line x1="239.0" y1="189.2" x2="419.0" y2="189.2" stroke="#eee" stroke-width="0.5"/>
<text x="237.0" y="189.2" text-anchor="end" dominant-baseline="middle" font-size="5.5" fill="#aaa">1µs</text>
<line x1="239.0" y1="159.9" x2="419.0" y2="159.9" stroke="#eee" stroke-width="0.5"/>
<text x="237.0" y="159.9" text-anchor="end" dominant-baseline="middle" font-size="5.5" fill="#aaa">10µs</text>
<line x1="239.0" y1="130.6" x2="419.0" y2="130.6" stroke="#eee" stroke-width="0.5"/>
<text x="237.0" y="130.6" text-anchor="end" dominant-baseline="middle" font-size="5.5" fill="#aaa">100µs</text>
<line x1="239.0" y1="101.3" x2="419.0" y2="101.3" stroke="#eee" stroke-width="0.5"/>
<text x="237.0" y="101.3" text-anchor="end" dominant-baseline="middle" font-size="5.5" fill="#aaa">1ms</text>
<line x1="239.0" y1="72.0" x2="419.0" y2="72.0" stroke="#eee" stroke-width="0.5"/>
<text x="237.0" y="72.0" text-anchor="end" dominant-baseline="middle" font-size="5.5" fill="#aaa">10ms</text>
<line x1="239.0" y1="42.8" x2="419.0" y2="42.8" stroke="#eee" stroke-width="0.5"/>
<text x="237.0" y="42.8" text-anchor="end" dominant-baseline="middle" font-size="5.5" fill="#aaa">100ms</text>
<rect x="239.0" y="37" width="180" height="180" fill="none" stroke="#ddd" stroke-width="0.5"/>
<path d="M247.4,198.9 L271.5,184.8 L287.4,176.5 L304.2,162.9 L323.3,143.3 L341.4,125.3 L359.1,106.2 L375.1,89.0 L384.6,77.0 L396.0,66.8 L412.8,48.7" fill="none" stroke="#E03030" stroke-width="1.4" opacity="0.8"/>
<circle cx="247.4" cy="198.9" r="1.8" fill="#E03030"/>
<circle cx="271.5" cy="184.8" r="1.8" fill="#E03030"/>
<circle cx="287.4" cy="176.5" r="1.8" fill="#E03030"/>
<circle cx="304.2" cy="162.9" r="1.8" fill="#E03030"/>
<circle cx="323.3" cy="143.3" r="1.8" fill="#E03030"/>
<circle cx="341.4" cy="125.3" r="1.8" fill="#E03030"/>
<circle cx="359.1" cy="106.2" r="1.8" fill="#E03030"/>
<circle cx="375.1" cy="89.0" r="1.8" fill="#E03030"/>
<circle cx="384.6" cy="77.0" r="1.8" fill="#E03030"/>
<circle cx="396.0" cy="66.8" r="1.8" fill="#E03030"/>
<circle cx="412.8" cy="48.7" r="1.8" fill="#E03030"/>
<path d="M247.4,205.3 L271.5,195.8 L287.4,186.1 L304.2,177.3 L323.3,158.7 L341.4,141.9 L359.1,122.7 L375.1,104.9 L384.6,94.7 L396.0,83.0 L412.8,64.3" fill="none" stroke="#E69F00" stroke-width="1.4" opacity="0.8"/>
<circle cx="247.4" cy="205.3" r="1.8" fill="#E69F00"/>
<circle cx="271.5" cy="195.8" r="1.8" fill="#E69F00"/>
<circle cx="287.4" cy="186.1" r="1.8" fill="#E69F00"/>
<circle cx="304.2" cy="177.3" r="1.8" fill="#E69F00"/>
<circle cx="323.3" cy="158.7" r="1.8" fill="#E69F00"/>
<circle cx="341.4" cy="141.9" r="1.8" fill="#E69F00"/>
<circle cx="359.1" cy="122.7" r="1.8" fill="#E69F00"/>
<circle cx="375.1" cy="104.9" r="1.8" fill="#E69F00"/>
<circle cx="384.6" cy="94.7" r="1.8" fill="#E69F00"/>
<circle cx="396.0" cy="83.0" r="1.8" fill="#E69F00"/>
<circle cx="412.8" cy="64.3" r="1.8" fill="#E69F00"/>
<path d="M247.4,181.3 L271.5,168.2 L287.4,159.0 L304.2,154.5 L323.3,141.1 L341.4,134.9 L359.1,125.3 L375.1,112.5 L384.6,107.2 L396.0,105.3 L412.8,96.2" fill="none" stroke="#2060D0" stroke-width="1.4" opacity="0.8"/>
<circle cx="247.4" cy="181.3" r="1.8" fill="#2060D0"/>
<circle cx="271.5" cy="168.2" r="1.8" fill="#2060D0"/>
<circle cx="287.4" cy="159.0" r="1.8" fill="#2060D0"/>
<circle cx="304.2" cy="154.5" r="1.8" fill="#2060D0"/>
<circle cx="323.3" cy="141.1" r="1.8" fill="#2060D0"/>
<circle cx="341.4" cy="134.9" r="1.8" fill="#2060D0"/>
<circle cx="359.1" cy="125.3" r="1.8" fill="#2060D0"/>
<circle cx="375.1" cy="112.5" r="1.8" fill="#2060D0"/>
<circle cx="384.6" cy="107.2" r="1.8" fill="#2060D0"/>
<circle cx="396.0" cy="105.3" r="1.8" fill="#2060D0"/>
<circle cx="412.8" cy="96.2" r="1.8" fill="#2060D0"/>
<text x="541" y="33" text-anchor="middle" font-size="9" font-weight="bold" fill="#333">Erdős-Rényi (d ~ 6)</text>
<line x1="459.5" y1="37" x2="459.5" y2="217" stroke="#eee" stroke-width="0.5"/>
<text x="459.5" y="226" text-anchor="middle" font-size="6.5" fill="#999">10</text>
<line x1="514.6" y1="37" x2="514.6" y2="217" stroke="#eee" stroke-width="0.5"/>
<text x="514.6" y="226" text-anchor="middle" font-size="6.5" fill="#999">100</text>
<line x1="569.7" y1="37" x2="569.7" y2="217" stroke="#eee" stroke-width="0.5"/>
<text x="569.7" y="226" text-anchor="middle" font-size="6.5" fill="#999">1,000</text>
<line x1="624.7" y1="37" x2="624.7" y2="217" stroke="#eee" stroke-width="0.5"/>
<text x="624.7" y="226" text-anchor="middle" font-size="6.5" fill="#999">10,000</text>
<line x1="451.0" y1="195.9" x2="631.0" y2="195.9" stroke="#eee" stroke-width="0.5"/>
<text x="449.0" y="195.9" text-anchor="end" dominant-baseline="middle" font-size="5.5" fill="#aaa">1µs</text>
<line x1="451.0" y1="169.8" x2="631.0" y2="169.8" stroke="#eee" stroke-width="0.5"/>
<text x="449.0" y="169.8" text-anchor="end" dominant-baseline="middle" font-size="5.5" fill="#aaa">10µs</text>
<line x1="451.0" y1="143.7" x2="631.0" y2="143.7" stroke="#eee" stroke-width="0.5"/>
<text x="449.0" y="143.7" text-anchor="end" dominant-baseline="middle" font-size="5.5" fill="#aaa">100µs</text>
<line x1="451.0" y1="117.7" x2="631.0" y2="117.7" stroke="#eee" stroke-width="0.5"/>
<text x="449.0" y="117.7" text-anchor="end" dominant-baseline="middle" font-size="5.5" fill="#aaa">1ms</text>
<line x1="451.0" y1="91.6" x2="631.0" y2="91.6" stroke="#eee" stroke-width="0.5"/>
<text x="449.0" y="91.6" text-anchor="end" dominant-baseline="middle" font-size="5.5" fill="#aaa">10ms</text>
<line x1="451.0" y1="65.5" x2="631.0" y2="65.5" stroke="#eee" stroke-width="0.5"/>
<text x="449.0" y="65.5" text-anchor="end" dominant-baseline="middle" font-size="5.5" fill="#aaa">100ms</text>
<line x1="451.0" y1="39.4" x2="631.0" y2="39.4" stroke="#eee" stroke-width="0.5"/>
<text x="449.0" y="39.4" text-anchor="end" dominant-baseline="middle" font-size="5.5" fill="#aaa">1s</text>
<rect x="451.0" y="37" width="180" height="180" fill="none" stroke="#ddd" stroke-width="0.5"/>
<path d="M459.5,202.2 L476.1,193.4 L498.0,183.5 L514.6,165.1 L531.2,150.4 L553.1,133.6 L569.7,119.7 L586.2,105.3 L595.9,91.7 L608.1,83.9 L617.8,73.9 L624.7,63.3" fill="none" stroke="#E03030" stroke-width="1.4" opacity="0.8"/>
<circle cx="459.5" cy="202.2" r="1.8" fill="#E03030"/>
<circle cx="476.1" cy="193.4" r="1.8" fill="#E03030"/>
<circle cx="498.0" cy="183.5" r="1.8" fill="#E03030"/>
<circle cx="514.6" cy="165.1" r="1.8" fill="#E03030"/>
<circle cx="531.2" cy="150.4" r="1.8" fill="#E03030"/>
<circle cx="553.1" cy="133.6" r="1.8" fill="#E03030"/>
<circle cx="569.7" cy="119.7" r="1.8" fill="#E03030"/>
<circle cx="586.2" cy="105.3" r="1.8" fill="#E03030"/>
<circle cx="595.9" cy="91.7" r="1.8" fill="#E03030"/>
<circle cx="608.1" cy="83.9" r="1.8" fill="#E03030"/>
<circle cx="617.8" cy="73.9" r="1.8" fill="#E03030"/>
<circle cx="624.7" cy="63.3" r="1.8" fill="#E03030"/>
<path d="M459.5,206.6 L476.1,199.3 L498.0,191.8 L514.6,171.7 L531.2,155.7 L553.1,139.0 L569.7,125.5 L586.2,116.7 L595.9,94.5 L608.1,91.9 L617.8,81.6 L624.7,64.6" fill="none" stroke="#E69F00" stroke-width="1.4" opacity="0.8"/>
<circle cx="459.5" cy="206.6" r="1.8" fill="#E69F00"/>
<circle cx="476.1" cy="199.3" r="1.8" fill="#E69F00"/>
<circle cx="498.0" cy="191.8" r="1.8" fill="#E69F00"/>
<circle cx="514.6" cy="171.7" r="1.8" fill="#E69F00"/>
<circle cx="531.2" cy="155.7" r="1.8" fill="#E69F00"/>
<circle cx="553.1" cy="139.0" r="1.8" fill="#E69F00"/>
<circle cx="569.7" cy="125.5" r="1.8" fill="#E69F00"/>
<circle cx="586.2" cy="116.7" r="1.8" fill="#E69F00"/>
<circle cx="595.9" cy="94.5" r="1.8" fill="#E69F00"/>
<circle cx="608.1" cy="91.9" r="1.8" fill="#E69F00"/>
<circle cx="617.8" cy="81.6" r="1.8" fill="#E69F00"/>
<circle cx="624.7" cy="64.6" r="1.8" fill="#E69F00"/>
<path d="M459.5,182.5 L476.1,174.0 L498.0,164.8 L514.6,154.7 L531.2,141.4 L553.1,133.1 L569.7,125.1 L586.2,116.3 L595.9,106.2 L608.1,104.4 L617.8,99.2 L624.7,90.8" fill="none" stroke="#2060D0" stroke-width="1.4" opacity="0.8"/>
<circle cx="459.5" cy="182.5" r="1.8" fill="#2060D0"/>
<circle cx="476.1" cy="174.0" r="1.8" fill="#2060D0"/>
<circle cx="498.0" cy="164.8" r="1.8" fill="#2060D0"/>
<circle cx="514.6" cy="154.7" r="1.8" fill="#2060D0"/>
<circle cx="531.2" cy="141.4" r="1.8" fill="#2060D0"/>
<circle cx="553.1" cy="133.1" r="1.8" fill="#2060D0"/>
<circle cx="569.7" cy="125.1" r="1.8" fill="#2060D0"/>
<circle cx="586.2" cy="116.3" r="1.8" fill="#2060D0"/>
<circle cx="595.9" cy="106.2" r="1.8" fill="#2060D0"/>
<circle cx="608.1" cy="104.4" r="1.8" fill="#2060D0"/>
<circle cx="617.8" cy="99.2" r="1.8" fill="#2060D0"/>
<circle cx="624.7" cy="90.8" r="1.8" fill="#2060D0"/>
<text x="753" y="33" text-anchor="middle" font-size="9" font-weight="bold" fill="#333">Complete</text>
<line x1="677.2" y1="37" x2="677.2" y2="217" stroke="#eee" stroke-width="0.5"/>
<text x="677.2" y="226" text-anchor="middle" font-size="6.5" fill="#999">10</text>
<line x1="768.6" y1="37" x2="768.6" y2="217" stroke="#eee" stroke-width="0.5"/>
<text x="768.6" y="226" text-anchor="middle" font-size="6.5" fill="#999">100</text>
<line x1="663.0" y1="189.6" x2="843.0" y2="189.6" stroke="#eee" stroke-width="0.5"/>
<text x="661.0" y="189.6" text-anchor="end" dominant-baseline="middle" font-size="5.5" fill="#aaa">1µs</text>
<line x1="663.0" y1="154.8" x2="843.0" y2="154.8" stroke="#eee" stroke-width="0.5"/>
<text x="661.0" y="154.8" text-anchor="end" dominant-baseline="middle" font-size="5.5" fill="#aaa">10µs</text>
<line x1="663.0" y1="120.0" x2="843.0" y2="120.0" stroke="#eee" stroke-width="0.5"/>
<text x="661.0" y="120.0" text-anchor="end" dominant-baseline="middle" font-size="5.5" fill="#aaa">100µs</text>
<line x1="663.0" y1="85.2" x2="843.0" y2="85.2" stroke="#eee" stroke-width="0.5"/>
<text x="661.0" y="85.2" text-anchor="end" dominant-baseline="middle" font-size="5.5" fill="#aaa">1ms</text>
<line x1="663.0" y1="50.4" x2="843.0" y2="50.4" stroke="#eee" stroke-width="0.5"/>
<text x="661.0" y="50.4" text-anchor="end" dominant-baseline="middle" font-size="5.5" fill="#aaa">10ms</text>
<rect x="663.0" y="37" width="180" height="180" fill="none" stroke="#ddd" stroke-width="0.5"/>
<path d="M677.2,195.1 L704.7,178.2 L741.1,145.0 L768.6,118.5 L796.2,90.0 L812.3,72.8 L823.7,60.7 L832.6,50.9" fill="none" stroke="#E03030" stroke-width="1.4" opacity="0.8"/>
<circle cx="677.2" cy="195.1" r="1.8" fill="#E03030"/>
<circle cx="704.7" cy="178.2" r="1.8" fill="#E03030"/>
<circle cx="741.1" cy="145.0" r="1.8" fill="#E03030"/>
<circle cx="768.6" cy="118.5" r="1.8" fill="#E03030"/>
<circle cx="796.2" cy="90.0" r="1.8" fill="#E03030"/>
<circle cx="812.3" cy="72.8" r="1.8" fill="#E03030"/>
<circle cx="823.7" cy="60.7" r="1.8" fill="#E03030"/>
<circle cx="832.6" cy="50.9" r="1.8" fill="#E03030"/>
<path d="M677.2,203.1 L704.7,185.2 L741.1,146.6 L768.6,119.9 L796.2,91.1 L812.3,73.8 L823.7,61.0 L832.6,51.3" fill="none" stroke="#E69F00" stroke-width="1.4" opacity="0.8"/>
<circle cx="677.2" cy="203.1" r="1.8" fill="#E69F00"/>
<circle cx="704.7" cy="185.2" r="1.8" fill="#E69F00"/>
<circle cx="741.1" cy="146.6" r="1.8" fill="#E69F00"/>
<circle cx="768.6" cy="119.9" r="1.8" fill="#E69F00"/>
<circle cx="796.2" cy="91.1" r="1.8" fill="#E69F00"/>
<circle cx="812.3" cy="73.8" r="1.8" fill="#E69F00"/>
<circle cx="823.7" cy="61.0" r="1.8" fill="#E69F00"/>
<circle cx="832.6" cy="51.3" r="1.8" fill="#E69F00"/>
<path d="M677.2,171.8 L704.7,157.4 L741.1,134.9 L768.6,115.9 L796.2,95.3 L812.3,84.4 L823.7,76.9 L832.6,70.9" fill="none" stroke="#2060D0" stroke-width="1.4" opacity="0.8"/>
<circle cx="677.2" cy="171.8" r="1.8" fill="#2060D0"/>
<circle cx="704.7" cy="157.4" r="1.8" fill="#2060D0"/>
<circle cx="741.1" cy="134.9" r="1.8" fill="#2060D0"/>
<circle cx="768.6" cy="115.9" r="1.8" fill="#2060D0"/>
<circle cx="796.2" cy="95.3" r="1.8" fill="#2060D0"/>
<circle cx="812.3" cy="84.4" r="1.8" fill="#2060D0"/>
<circle cx="823.7" cy="76.9" r="1.8" fill="#2060D0"/>
<circle cx="832.6" cy="70.9" r="1.8" fill="#2060D0"/>
<text x="223" y="267" text-anchor="middle" font-size="9" font-weight="bold" fill="#333">Barabási-Albert (m=2)</text>
<line x1="169.2" y1="271" x2="169.2" y2="451" stroke="#eee" stroke-width="0.5"/>
<text x="169.2" y="460" text-anchor="middle" font-size="6.5" fill="#999">100</text>
<line x1="248.5" y1="271" x2="248.5" y2="451" stroke="#eee" stroke-width="0.5"/>
<text x="248.5" y="460" text-anchor="middle" font-size="6.5" fill="#999">1,000</text>
<line x1="133.0" y1="449.6" x2="313.0" y2="449.6" stroke="#eee" stroke-width="0.5"/>
<text x="131.0" y="449.6" text-anchor="end" dominant-baseline="middle" font-size="5.5" fill="#aaa">1µs</text>
<line x1="133.0" y1="417.0" x2="313.0" y2="417.0" stroke="#eee" stroke-width="0.5"/>
<text x="131.0" y="417.0" text-anchor="end" dominant-baseline="middle" font-size="5.5" fill="#aaa">10µs</text>
<line x1="133.0" y1="384.5" x2="313.0" y2="384.5" stroke="#eee" stroke-width="0.5"/>
<text x="131.0" y="384.5" text-anchor="end" dominant-baseline="middle" font-size="5.5" fill="#aaa">100µs</text>
<line x1="133.0" y1="351.9" x2="313.0" y2="351.9" stroke="#eee" stroke-width="0.5"/>
<text x="131.0" y="351.9" text-anchor="end" dominant-baseline="middle" font-size="5.5" fill="#aaa">1ms</text>
<line x1="133.0" y1="319.4" x2="313.0" y2="319.4" stroke="#eee" stroke-width="0.5"/>
<text x="131.0" y="319.4" text-anchor="end" dominant-baseline="middle" font-size="5.5" fill="#aaa">10ms</text>
<line x1="133.0" y1="286.9" x2="313.0" y2="286.9" stroke="#eee" stroke-width="0.5"/>
<text x="131.0" y="286.9" text-anchor="end" dominant-baseline="middle" font-size="5.5" fill="#aaa">100ms</text>
<rect x="133.0" y="271" width="180" height="180" fill="none" stroke="#ddd" stroke-width="0.5"/>
<path d="M145.3,428.5 L169.2,413.9 L193.1,396.6 L224.6,371.5 L248.5,352.9 L272.4,333.9 L304.0,308.5" fill="none" stroke="#E03030" stroke-width="1.4" opacity="0.8"/>
<circle cx="145.3" cy="428.5" r="1.8" fill="#E03030"/>
<circle cx="169.2" cy="413.9" r="1.8" fill="#E03030"/>
<circle cx="193.1" cy="396.6" r="1.8" fill="#E03030"/>
<circle cx="224.6" cy="371.5" r="1.8" fill="#E03030"/>
<circle cx="248.5" cy="352.9" r="1.8" fill="#E03030"/>
<circle cx="272.4" cy="333.9" r="1.8" fill="#E03030"/>
<circle cx="304.0" cy="308.5" r="1.8" fill="#E03030"/>
<path d="M145.3,438.1 L169.2,426.2 L193.1,411.2 L224.6,389.9 L248.5,370.8 L272.4,351.7 L304.0,327.6" fill="none" stroke="#E69F00" stroke-width="1.4" opacity="0.8"/>
<circle cx="145.3" cy="438.1" r="1.8" fill="#E69F00"/>
<circle cx="169.2" cy="426.2" r="1.8" fill="#E69F00"/>
<circle cx="193.1" cy="411.2" r="1.8" fill="#E69F00"/>
<circle cx="224.6" cy="389.9" r="1.8" fill="#E69F00"/>
<circle cx="248.5" cy="370.8" r="1.8" fill="#E69F00"/>
<circle cx="272.4" cy="351.7" r="1.8" fill="#E69F00"/>
<circle cx="304.0" cy="327.6" r="1.8" fill="#E69F00"/>
<path d="M145.3,414.7 L169.2,402.0 L193.1,391.1 L224.6,376.2 L248.5,363.4 L272.4,351.4 L304.0,335.7" fill="none" stroke="#2060D0" stroke-width="1.4" opacity="0.8"/>
<circle cx="145.3" cy="414.7" r="1.8" fill="#2060D0"/>
<circle cx="169.2" cy="402.0" r="1.8" fill="#2060D0"/>
<circle cx="193.1" cy="391.1" r="1.8" fill="#2060D0"/>
<circle cx="224.6" cy="376.2" r="1.8" fill="#2060D0"/>
<circle cx="248.5" cy="363.4" r="1.8" fill="#2060D0"/>
<circle cx="272.4" cy="351.4" r="1.8" fill="#2060D0"/>
<circle cx="304.0" cy="335.7" r="1.8" fill="#2060D0"/>
<text x="435" y="267" text-anchor="middle" font-size="9" font-weight="bold" fill="#333">Hex. Lattice</text>
<line x1="364.4" y1="271" x2="364.4" y2="451" stroke="#eee" stroke-width="0.5"/>
<text x="364.4" y="460" text-anchor="middle" font-size="6.5" fill="#999">10</text>
<line x1="415.9" y1="271" x2="415.9" y2="451" stroke="#eee" stroke-width="0.5"/>
<text x="415.9" y="460" text-anchor="middle" font-size="6.5" fill="#999">100</text>
<line x1="467.4" y1="271" x2="467.4" y2="451" stroke="#eee" stroke-width="0.5"/>
<text x="467.4" y="460" text-anchor="middle" font-size="6.5" fill="#999">1,000</text>
<line x1="519.0" y1="271" x2="519.0" y2="451" stroke="#eee" stroke-width="0.5"/>
<text x="519.0" y="460" text-anchor="middle" font-size="6.5" fill="#999">10,000</text>
<line x1="345.0" y1="446.4" x2="525.0" y2="446.4" stroke="#eee" stroke-width="0.5"/>
<text x="343.0" y="446.4" text-anchor="end" dominant-baseline="middle" font-size="5.5" fill="#aaa">0.1µs</text>
<line x1="345.0" y1="418.1" x2="525.0" y2="418.1" stroke="#eee" stroke-width="0.5"/>
<text x="343.0" y="418.1" text-anchor="end" dominant-baseline="middle" font-size="5.5" fill="#aaa">1µs</text>
<line x1="345.0" y1="389.9" x2="525.0" y2="389.9" stroke="#eee" stroke-width="0.5"/>
<text x="343.0" y="389.9" text-anchor="end" dominant-baseline="middle" font-size="5.5" fill="#aaa">10µs</text>
<line x1="345.0" y1="361.7" x2="525.0" y2="361.7" stroke="#eee" stroke-width="0.5"/>
<text x="343.0" y="361.7" text-anchor="end" dominant-baseline="middle" font-size="5.5" fill="#aaa">100µs</text>
<line x1="345.0" y1="333.5" x2="525.0" y2="333.5" stroke="#eee" stroke-width="0.5"/>
<text x="343.0" y="333.5" text-anchor="end" dominant-baseline="middle" font-size="5.5" fill="#aaa">1ms</text>
<line x1="345.0" y1="305.3" x2="525.0" y2="305.3" stroke="#eee" stroke-width="0.5"/>
<text x="343.0" y="305.3" text-anchor="end" dominant-baseline="middle" font-size="5.5" fill="#aaa">10ms</text>
<line x1="345.0" y1="277.0" x2="525.0" y2="277.0" stroke="#eee" stroke-width="0.5"/>
<text x="343.0" y="277.0" text-anchor="end" dominant-baseline="middle" font-size="5.5" fill="#aaa">100ms</text>
<rect x="345.0" y="271" width="180" height="180" fill="none" stroke="#ddd" stroke-width="0.5"/>
<path d="M353.0,435.2 L374.9,425.5 L389.0,416.4 L415.0,393.8 L435.5,373.1 L452.4,355.3 L467.7,338.5 L482.7,321.9 L492.9,311.3 L504.3,298.4 L519.1,282.2" fill="none" stroke="#E03030" stroke-width="1.4" opacity="0.8"/>
<circle cx="353.0" cy="435.2" r="1.8" fill="#E03030"/>
<circle cx="374.9" cy="425.5" r="1.8" fill="#E03030"/>
<circle cx="389.0" cy="416.4" r="1.8" fill="#E03030"/>
<circle cx="415.0" cy="393.8" r="1.8" fill="#E03030"/>
<circle cx="435.5" cy="373.1" r="1.8" fill="#E03030"/>
<circle cx="452.4" cy="355.3" r="1.8" fill="#E03030"/>
<circle cx="467.7" cy="338.5" r="1.8" fill="#E03030"/>
<circle cx="482.7" cy="321.9" r="1.8" fill="#E03030"/>
<circle cx="492.9" cy="311.3" r="1.8" fill="#E03030"/>
<circle cx="504.3" cy="298.4" r="1.8" fill="#E03030"/>
<circle cx="519.1" cy="282.2" r="1.8" fill="#E03030"/>
<path d="M353.0,439.8 L374.9,432.4 L389.0,425.0 L415.0,406.9 L435.5,388.7 L452.4,371.5 L467.7,354.4 L482.7,337.2 L492.9,326.2 L504.3,313.8 L519.1,297.7" fill="none" stroke="#E69F00" stroke-width="1.4" opacity="0.8"/>
<circle cx="353.0" cy="439.8" r="1.8" fill="#E69F00"/>
<circle cx="374.9" cy="432.4" r="1.8" fill="#E69F00"/>
<circle cx="389.0" cy="425.0" r="1.8" fill="#E69F00"/>
<circle cx="415.0" cy="406.9" r="1.8" fill="#E69F00"/>
<circle cx="435.5" cy="388.7" r="1.8" fill="#E69F00"/>
<circle cx="452.4" cy="371.5" r="1.8" fill="#E69F00"/>
<circle cx="467.7" cy="354.4" r="1.8" fill="#E69F00"/>
<circle cx="482.7" cy="337.2" r="1.8" fill="#E69F00"/>
<circle cx="492.9" cy="326.2" r="1.8" fill="#E69F00"/>
<circle cx="504.3" cy="313.8" r="1.8" fill="#E69F00"/>
<circle cx="519.1" cy="297.7" r="1.8" fill="#E69F00"/>
<path d="M353.0,416.6 L374.9,406.7 L389.0,399.9 L415.0,385.5 L435.5,375.3 L452.4,365.7 L467.7,357.2 L482.7,348.9 L492.9,343.1 L504.3,337.0 L519.1,328.9" fill="none" stroke="#2060D0" stroke-width="1.4" opacity="0.8"/>
<circle cx="353.0" cy="416.6" r="1.8" fill="#2060D0"/>
<circle cx="374.9" cy="406.7" r="1.8" fill="#2060D0"/>
<circle cx="389.0" cy="399.9" r="1.8" fill="#2060D0"/>
<circle cx="415.0" cy="385.5" r="1.8" fill="#2060D0"/>
<circle cx="435.5" cy="375.3" r="1.8" fill="#2060D0"/>
<circle cx="452.4" cy="365.7" r="1.8" fill="#2060D0"/>
<circle cx="467.7" cy="357.2" r="1.8" fill="#2060D0"/>
<circle cx="482.7" cy="348.9" r="1.8" fill="#2060D0"/>
<circle cx="492.9" cy="343.1" r="1.8" fill="#2060D0"/>
<circle cx="504.3" cy="337.0" r="1.8" fill="#2060D0"/>
<circle cx="519.1" cy="328.9" r="1.8" fill="#2060D0"/>
<text x="647" y="267" text-anchor="middle" font-size="9" font-weight="bold" fill="#333">Windmill K4</text>
<line x1="565.5" y1="271" x2="565.5" y2="451" stroke="#eee" stroke-width="0.5"/>
<text x="565.5" y="460" text-anchor="middle" font-size="6.5" fill="#999">10</text>
<line x1="620.6" y1="271" x2="620.6" y2="451" stroke="#eee" stroke-width="0.5"/>
<text x="620.6" y="460" text-anchor="middle" font-size="6.5" fill="#999">100</text>
<line x1="675.7" y1="271" x2="675.7" y2="451" stroke="#eee" stroke-width="0.5"/>
<text x="675.7" y="460" text-anchor="middle" font-size="6.5" fill="#999">1,000</text>
<line x1="730.7" y1="271" x2="730.7" y2="451" stroke="#eee" stroke-width="0.5"/>
<text x="730.7" y="460" text-anchor="middle" font-size="6.5" fill="#999">10,000</text>
<line x1="557.0" y1="430.9" x2="737.0" y2="430.9" stroke="#eee" stroke-width="0.5"/>
<text x="555.0" y="430.9" text-anchor="end" dominant-baseline="middle" font-size="5.5" fill="#aaa">1µs</text>
<line x1="557.0" y1="404.9" x2="737.0" y2="404.9" stroke="#eee" stroke-width="0.5"/>
<text x="555.0" y="404.9" text-anchor="end" dominant-baseline="middle" font-size="5.5" fill="#aaa">10µs</text>
<line x1="557.0" y1="378.9" x2="737.0" y2="378.9" stroke="#eee" stroke-width="0.5"/>
<text x="555.0" y="378.9" text-anchor="end" dominant-baseline="middle" font-size="5.5" fill="#aaa">100µs</text>
<line x1="557.0" y1="352.9" x2="737.0" y2="352.9" stroke="#eee" stroke-width="0.5"/>
<text x="555.0" y="352.9" text-anchor="end" dominant-baseline="middle" font-size="5.5" fill="#aaa">1ms</text>
<line x1="557.0" y1="326.9" x2="737.0" y2="326.9" stroke="#eee" stroke-width="0.5"/>
<text x="555.0" y="326.9" text-anchor="end" dominant-baseline="middle" font-size="5.5" fill="#aaa">10ms</text>
<line x1="557.0" y1="300.9" x2="737.0" y2="300.9" stroke="#eee" stroke-width="0.5"/>
<text x="555.0" y="300.9" text-anchor="end" dominant-baseline="middle" font-size="5.5" fill="#aaa">100ms</text>
<line x1="557.0" y1="274.9" x2="737.0" y2="274.9" stroke="#eee" stroke-width="0.5"/>
<text x="555.0" y="274.9" text-anchor="end" dominant-baseline="middle" font-size="5.5" fill="#aaa">1s</text>
<rect x="557.0" y="271" width="180" height="180" fill="none" stroke="#ddd" stroke-width="0.5"/>
<path d="M565.5,435.9 L580.9,428.0 L603.5,412.9 L620.6,399.5 L637.1,385.5 L659.0,365.9 L675.7,350.1 L692.2,334.4 L701.9,325.6 L714.1,314.1 L723.8,305.0 L730.7,298.4" fill="none" stroke="#E03030" stroke-width="1.4" opacity="0.8"/>
<circle cx="565.5" cy="435.9" r="1.8" fill="#E03030"/>
<circle cx="580.9" cy="428.0" r="1.8" fill="#E03030"/>
<circle cx="603.5" cy="412.9" r="1.8" fill="#E03030"/>
<circle cx="620.6" cy="399.5" r="1.8" fill="#E03030"/>
<circle cx="637.1" cy="385.5" r="1.8" fill="#E03030"/>
<circle cx="659.0" cy="365.9" r="1.8" fill="#E03030"/>
<circle cx="675.7" cy="350.1" r="1.8" fill="#E03030"/>
<circle cx="692.2" cy="334.4" r="1.8" fill="#E03030"/>
<circle cx="701.9" cy="325.6" r="1.8" fill="#E03030"/>
<circle cx="714.1" cy="314.1" r="1.8" fill="#E03030"/>
<circle cx="723.8" cy="305.0" r="1.8" fill="#E03030"/>
<circle cx="730.7" cy="298.4" r="1.8" fill="#E03030"/>
<path d="M565.5,440.7 L580.9,433.1 L603.5,417.9 L620.6,406.6 L637.1,393.5 L659.0,374.2 L675.7,359.1 L692.2,343.4 L701.9,334.3 L714.1,323.1 L723.8,313.9 L730.7,307.4" fill="none" stroke="#E69F00" stroke-width="1.4" opacity="0.8"/>
<circle cx="565.5" cy="440.7" r="1.8" fill="#E69F00"/>
<circle cx="580.9" cy="433.1" r="1.8" fill="#E69F00"/>
<circle cx="603.5" cy="417.9" r="1.8" fill="#E69F00"/>
<circle cx="620.6" cy="406.6" r="1.8" fill="#E69F00"/>
<circle cx="637.1" cy="393.5" r="1.8" fill="#E69F00"/>
<circle cx="659.0" cy="374.2" r="1.8" fill="#E69F00"/>
<circle cx="675.7" cy="359.1" r="1.8" fill="#E69F00"/>
<circle cx="692.2" cy="343.4" r="1.8" fill="#E69F00"/>
<circle cx="701.9" cy="334.3" r="1.8" fill="#E69F00"/>
<circle cx="714.1" cy="323.1" r="1.8" fill="#E69F00"/>
<circle cx="723.8" cy="313.9" r="1.8" fill="#E69F00"/>
<circle cx="730.7" cy="307.4" r="1.8" fill="#E69F00"/>
<path d="M565.5,419.7 L580.9,411.5 L603.5,402.3 L620.6,394.3 L637.1,386.8 L659.0,377.0 L675.7,369.2 L692.2,361.5 L701.9,356.9 L714.1,351.3 L723.8,346.8 L730.7,343.7" fill="none" stroke="#2060D0" stroke-width="1.4" opacity="0.8"/>
<circle cx="565.5" cy="419.7" r="1.8" fill="#2060D0"/>
<circle cx="580.9" cy="411.5" r="1.8" fill="#2060D0"/>
<circle cx="603.5" cy="402.3" r="1.8" fill="#2060D0"/>
<circle cx="620.6" cy="394.3" r="1.8" fill="#2060D0"/>
<circle cx="637.1" cy="386.8" r="1.8" fill="#2060D0"/>
<circle cx="659.0" cy="377.0" r="1.8" fill="#2060D0"/>
<circle cx="675.7" cy="369.2" r="1.8" fill="#2060D0"/>
<circle cx="692.2" cy="361.5" r="1.8" fill="#2060D0"/>
<circle cx="701.9" cy="356.9" r="1.8" fill="#2060D0"/>
<circle cx="714.1" cy="351.3" r="1.8" fill="#2060D0"/>
<circle cx="723.8" cy="346.8" r="1.8" fill="#2060D0"/>
<circle cx="730.7" cy="343.7" r="1.8" fill="#2060D0"/>
<rect x="308" y="477" width="10" height="10" fill="rgba(224,48,48,0.8)" stroke="#E03030" stroke-width="1" rx="2"/>
<text x="322" y="486" font-size="9" fill="#555">Blossom</text>
<rect x="380" y="477" width="10" height="10" fill="rgba(230,159,0,0.8)" stroke="#E69F00" stroke-width="1" rx="2"/>
<text x="394" y="486" font-size="9" fill="#555">Gabow 1976</text>
<rect x="470" y="477" width="10" height="10" fill="rgba(32,96,208,0.8)" stroke="#2060D0" stroke-width="1" rx="2"/>
<text x="484" y="486" font-size="9" fill="#555">Micali-Vazirani</text>
<text x="862" y="493" text-anchor="end" font-size="7" fill="#bbb">github.com/LucaCappelletti94/maximal-matching-benchmark</text>
</svg>
